<?xml version="1.0" encoding="UTF-8"?><svg id="b" xmlns="http://www.w3.org/2000/svg" width="316" height="316" viewBox="0 0 316 316"><defs><style>.d{fill:#fff;}.e{fill:#007469;}</style></defs><g id="c"><path class="d" d="M158,2.48C72.25,2.48,2.49,72.25,2.49,158s69.76,155.52,155.51,155.52,155.52-69.77,155.52-155.52S243.75,2.48,158,2.48"/><path class="e" d="M158,310.27c-83.96,0-152.26-68.31-152.26-152.27S74.04,5.73,158,5.73s152.27,68.31,152.27,152.27-68.3,152.27-152.27,152.27M158,8.22C75.41,8.22,8.22,75.41,8.22,158s67.19,149.79,149.78,149.79,149.79-67.19,149.79-149.79S240.59,8.22,158,8.22M158,316C70.88,316,0,245.13,0,158S70.88,0,158,0s158,70.88,158,158-70.88,158-158,158M158,2.48C72.25,2.48,2.49,72.25,2.49,158s69.76,155.52,155.51,155.52,155.52-69.77,155.52-155.52S243.75,2.48,158,2.48M158.11,279.43c-66.95,0-121.43-54.47-121.43-121.43s54.48-121.44,121.43-121.44,121.44,54.48,121.44,121.44-54.48,121.43-121.44,121.43M158.11,39.03c-65.6,0-118.97,53.37-118.97,118.98s53.38,118.97,118.97,118.97,118.98-53.37,118.98-118.97-53.38-118.98-118.98-118.98M158.11,274.34c-64.15,0-116.34-52.2-116.34-116.35s52.18-116.33,116.34-116.33,116.34,52.19,116.34,116.33-52.19,116.35-116.34,116.35M158.11,44.14c-62.78,0-113.85,51.08-113.85,113.86s51.07,113.86,113.85,113.86,113.86-51.07,113.86-113.86-51.07-113.86-113.86-113.86M27.42,218.6c-.04.28-.06.59-.07.9-.02.32.03.72.14,1.22.11.49.31,1.11.6,1.84.3.73.73,1.67,1.31,2.8.41.78.85,1.42,1.33,1.94.48.52.99.92,1.49,1.19.51.28,1.02.42,1.52.44.51.02.98-.08,1.42-.31l1.75-.9c.56-.29,1.01-.59,1.36-.9.34-.31.59-.69.76-1.11.17-.44.26-.96.28-1.56.02-.61.01-1.35-.04-2.24-.06-1.13-.11-2.01-.15-2.64-.04-.63-.04-1.11-.02-1.44.03-.32.1-.55.2-.67.12-.12.27-.24.47-.34l.57-.29c.39-.21.76-.14,1.1.17.34.31.7.84,1.08,1.55.29.55.48,1.02.58,1.43.1.41.15.75.15,1.04s-.04.53-.11.71c-.08.18-.15.32-.24.41l.78,1.51,3.21-1.66c0-.48-.15-1.17-.43-2.06-.28-.88-.72-1.91-1.33-3.08-.55-1.07-1.09-1.92-1.61-2.53-.53-.62-1.04-1.06-1.54-1.32-.5-.27-1.01-.37-1.54-.31-.52.05-1.05.22-1.58.49l-1.38.71c-.64.33-1.1.73-1.37,1.18-.26.45-.43.94-.49,1.46-.07.52-.07,1.08,0,1.66.06.59.1,1.17.13,1.76.03.83.07,1.51.11,2.04.04.53.06.96.07,1.27,0,.32-.03.57-.1.73-.07.15-.19.28-.35.36l-1.23.64c-.19.1-.38.16-.57.19-.19.03-.39-.02-.61-.14-.21-.12-.44-.33-.7-.64-.25-.3-.53-.75-.84-1.33-.26-.51-.44-.98-.52-1.42-.09-.44-.13-.82-.12-1.16.01-.34.05-.63.13-.87.07-.24.15-.42.23-.52l-.89-1.72-2.95,1.53ZM50.3,229.63c.16-.11.33-.2.51-.26.15-.05.3-.1.46-.13.15-.04.3-.04.44-.02l.23-1.07-1.71-2.65-1.07-.24c-.07.3-.21.54-.42.72-.22.17-.4.3-.53.39l-11.52,7.43c-.08.06-.26.15-.52.27-.26.12-.53.15-.8.09l-.23,1.07,1.72,2.66,1.06.24c.06-.23.17-.43.38-.64.2-.2.37-.34.5-.43l11.52-7.43ZM43.64,241.41c-.32.25-.61.43-.86.54-.25.1-.47.17-.64.18-.21.03-.37.02-.49-.04l-.87,1.55,4.46,5.74c.4.5.75.91,1.07,1.23.32.32.6.56.83.73.27.22.51.38.73.45l2.97-2.3-.94-1.2c-.21.06-.42.08-.64.05-.19-.03-.4-.09-.6-.19-.21-.11-.42-.29-.62-.56l-2.27-2.92,9.88-7.68c.36-.28.68-.44.95-.48.13-.03.26-.03.39-.03l.14-1.09-1.94-2.49-1.08-.14c-.03.1-.06.21-.11.34-.05.1-.13.22-.24.36-.12.15-.27.32-.5.48l-9.61,7.46ZM61.63,244.59c.23-.22.39-.42.49-.58.1-.17.18-.31.24-.43.03-.13.05-.26.06-.35h1.09s4.71,4.82,4.71,4.82c.48.48.86,1.02,1.14,1.6.28.59.44,1.19.48,1.81.03.62-.07,1.24-.29,1.86-.24.61-.63,1.2-1.21,1.76l-1.18,1.16c-.69.67-1.4,1.14-2.15,1.4-.76.27-1.51.36-2.25.28-.75-.07-1.46-.29-2.16-.65-.7-.36-1.33-.83-1.9-1.41-.1-.1-.23-.22-.36-.36-.13-.15-.27-.3-.4-.47-.13-.16-.25-.32-.35-.47-.1-.15-.16-.27-.21-.38l-2.74,2.69c-.12.11-.25.28-.41.52-.15.24-.23.47-.24.69l-1.09-.02-2.21-2.26v-1.09c.28,0,.55-.08.78-.26.23-.17.39-.29.46-.36l9.72-9.52ZM59.7,251.86c.09.22.21.45.38.67.16.23.35.44.54.64.62.64,1.33.95,2.11.94.78-.01,1.43-.28,1.96-.79l.91-.89c.42-.42.6-.84.53-1.27-.08-.43-.35-.89-.84-1.39l-1.69-1.73-3.9,3.82ZM67.55,266.83c-.25.21-.49.4-.72.57-.2.16-.4.3-.62.46-.21.16-.38.28-.49.36-.25.14-.46.25-.65.33-.18.08-.34.12-.49.14-.16.05-.32.06-.46.05l-2.14-1.71-.23-1.21c.14-.02.3-.06.48-.12.31-.08.71-.24,1.17-.51.16-.1.48-.31.98-.63.49-.31,1.07-.69,1.75-1.14.67-.44,1.41-.94,2.23-1.46.81-.53,1.63-1.06,2.44-1.61.82-.54,1.61-1.06,2.38-1.56.78-.51,1.46-.96,2.05-1.35.6-.39,1.23-.82,1.91-1.29l3.38,2.69c-.31.77-.58,1.49-.83,2.15-.26.66-.54,1.43-.86,2.29-.32.86-.66,1.76-1,2.67-.35.91-.69,1.83-1.03,2.74-.33.91-.64,1.75-.93,2.5-.28.75-.52,1.41-.72,1.95-.2.56-.33.92-.4,1.1-.08.26-.15.5-.18.71-.04.21-.06.39-.06.54-.02.19-.02.35,0,.49l-1.22.05-2.15-1.71c-.04-.13-.06-.29-.06-.46-.01-.14,0-.32.02-.52.03-.21.09-.44.19-.7.04-.15.12-.34.23-.58.12-.24.22-.47.32-.69.11-.27.25-.54.4-.83l-4.68-3.74ZM76.49,261l-.58-.46-6.06,4.54,3.57,2.84,3.08-6.92ZM85.86,274.16c.1.11.22.23.34.38.14.15.26.33.37.55.11.21.21.45.28.71.07.26.1.53.09.82l-.32,5.39c-.01.29-.01.58.01.88.02.29.06.58.13.86.07.28.18.54.33.78.15.24.35.43.61.58.33.21.66.39.96.54.3.15.57.27.79.37.27.1.49.18.69.25l.86-1.43c-.2-.14-.36-.3-.51-.48-.13-.16-.24-.37-.33-.59-.09-.23-.12-.52-.09-.84l.4-4.35c.05-.5.05-.94.02-1.3-.05-.36-.1-.66-.18-.9-.07-.25-.16-.44-.25-.59-.09-.15-.18-.28-.24-.39,0,0,.09.02.25.03.15.01.36,0,.62-.04.26-.05.56-.12.89-.23.33-.12.68-.3,1.05-.57l3.64-2.57c.2-.15.4-.26.58-.31.19-.06.35-.09.49-.09.16,0,.31.03.44.06l.67-1.09-3.83-2.31-.08.13s-.04.07-.06.12c-.02.05-.04.09-.07.14-.07.12-.15.24-.24.34-.09.11-.2.21-.32.3l-3.59,2.63c-.72.52-1.37.79-1.97.8-.61,0-1.09-.07-1.45-.21l2.88-4.77c.12-.21.21-.42.27-.68.06-.22.1-.46.12-.72.02-.26,0-.54-.08-.85l-2.25-1.35-1.06.26c.03.14.03.29,0,.44-.04.15-.07.31-.12.47-.07.17-.15.34-.24.51l-7.08,11.74s-.05.1-.11.23c-.07.14-.13.3-.19.51-.05.21-.09.45-.12.71-.02.27.02.53.11.8l2.25,1.35,1.06-.27c-.03-.14-.04-.28-.01-.44.03-.16.06-.31.11-.45.06-.14.11-.26.16-.35.06-.09.09-.15.11-.16l3.21-5.34ZM99.9,291.04c-1.23-.53-2.22-1.15-2.98-1.85-.75-.7-1.27-1.51-1.56-2.43-.29-.92-.35-1.96-.19-3.1.17-1.15.57-2.45,1.21-3.91,1.27-2.9,2.77-4.76,4.51-5.59,1.73-.82,3.81-.7,6.23.35,2.4,1.05,3.9,2.49,4.48,4.32.59,1.82.25,4.2-1.03,7.12-.64,1.45-1.32,2.63-2.05,3.54-.73.9-1.54,1.56-2.42,1.96-.88.4-1.83.57-2.87.48-1.03-.08-2.14-.39-3.34-.91M101.22,288.01c.66.29,1.25.43,1.76.43.52,0,1.01-.14,1.46-.43.46-.29.88-.73,1.28-1.34.41-.6.81-1.36,1.22-2.29.41-.93.7-1.77.87-2.49.18-.72.23-1.36.13-1.91-.08-.54-.3-1.02-.65-1.4-.35-.39-.85-.73-1.51-1.02-.65-.28-1.24-.42-1.77-.42-.52.01-1.02.17-1.48.48-.45.31-.89.77-1.3,1.39-.41.62-.83,1.4-1.23,2.34-.41.93-.69,1.74-.86,2.44-.17.7-.2,1.33-.11,1.86.09.53.31.98.67,1.37.35.38.86.72,1.51,1M117.09,280.97c.08-.31.13-.56.14-.75,0-.2,0-.36-.01-.49-.04-.13-.08-.25-.12-.34l.96-.53,6.49,1.84c.65.19,1.24.46,1.78.83.53.36.97.81,1.31,1.33.34.52.56,1.1.66,1.75.11.65.05,1.36-.17,2.12l-.45,1.6c-.36,1.2-.91,2.13-1.68,2.78-.75.65-1.62,1.07-2.6,1.27l.66,3.66c.07.33.17.6.31.8.13.21.29.38.46.5.18.14.39.24.62.3l-.46,1.61c-.21-.01-.45-.03-.73-.06-.23-.04-.52-.09-.85-.15-.33-.07-.69-.16-1.07-.26-.29-.09-.54-.22-.74-.41-.21-.19-.38-.41-.53-.66-.14-.25-.27-.51-.36-.79-.1-.28-.18-.55-.24-.84l-.87-4.03c-.26-.09-.54-.21-.81-.32-.29-.12-.5-.23-.64-.33l-1.05,3.69c-.05.15-.08.37-.09.66-.02.28.03.52.14.72l-.96.53-3.03-.87-.53-.96c.24-.13.43-.33.54-.6.12-.27.18-.45.22-.54l3.72-13.08ZM119.02,288.24c.18.15.41.29.66.41.26.11.52.21.79.29.86.24,1.62.16,2.29-.23.67-.4,1.1-.95,1.31-1.66l.35-1.23c.16-.57.11-1.03-.17-1.36-.27-.34-.74-.6-1.41-.8l-2.32-.65-1.5,5.24ZM146.77,287.03c.04-.25.09-.46.15-.62.06-.17.13-.3.21-.41.07-.11.16-.21.25-.29l-.66-.88-3.13-.44-.88.65c.06.09.11.2.17.32.03.11.05.25.08.42.03.17.02.38-.01.62l-1.03,7.35-.16,2.44-.82-2.55-3.62-9.16c-.15-.36-.33-.64-.54-.82-.22-.19-.44-.31-.68-.33l-2.62-.37-.88.66c.05.07.1.17.16.32.02.13.05.3.07.51.02.22,0,.5-.05.85l-1.87,13.25c-.04.27-.09.5-.17.67-.07.17-.14.3-.19.39-.09.11-.18.2-.25.27l.66.87,3.13.44.87-.66c-.07-.09-.12-.21-.16-.35-.04-.13-.07-.27-.09-.45-.01-.16,0-.38.04-.64l1.03-7.32.2-2.65.83,2.67,3.96,10.34,3.81.53,2.19-15.64ZM169.99,298.71c.02.28-.02.47-.1.59-.08.12-.27.19-.57.21l-2.23.14c-.53.04-.99.02-1.37-.03-.39-.06-.7-.18-.96-.39-.25-.2-.44-.49-.56-.86-.13-.38-.2-.85-.24-1.42l-.62-9.7c0-.2,0-.39.02-.57.03-.16.07-.32.11-.47.04-.15.11-.28.2-.39l-.82-.72-3.15.19-.73.83c.23.21.38.44.42.71.05.28.07.5.09.65l.63,10.03c.05.83.22,1.6.48,2.29.26.69.61,1.27,1.03,1.75.43.48.94.85,1.54,1.1.59.25,1.25.35,1.96.31l4.65-.3c.44-.03.9-.19,1.4-.49.5-.3.96-.65,1.36-1.07.4-.42.72-.85.99-1.32.27-.47.38-.87.35-1.23l-.75-11.93c-.02-.2,0-.39.03-.57.03-.16.06-.32.09-.47.05-.15.12-.28.21-.38l-.82-.73-3.16.2-.72.83c.24.21.37.44.42.72.05.28.07.49.09.65l.75,11.84ZM191.72,283.08c-.05-.25-.08-.46-.08-.64,0-.17.02-.32.06-.45.04-.13.08-.25.14-.36l-.92-.6-3.09.65-.6.91c.08.07.17.15.27.25.06.09.13.21.21.37.09.15.15.34.2.58l1.54,7.26.68,2.36-1.64-2.13-6.52-7.36c-.26-.29-.52-.49-.8-.6-.26-.11-.51-.13-.74-.09l-2.6.55-.6.92c.07.04.16.13.27.25.06.11.13.26.22.45.1.2.18.47.25.81l2.76,13.1c.05.27.08.5.07.69-.01.18-.02.33-.04.43-.06.13-.11.24-.15.33l.92.6,3.1-.65.59-.92c-.09-.06-.19-.15-.27-.28-.08-.1-.15-.23-.24-.39-.07-.16-.14-.36-.19-.62l-1.53-7.23-.73-2.56,1.69,2.24,7.25,8.37,3.76-.79-3.26-15.46ZM200.15,280.31c-.06-.19-.1-.37-.12-.56-.02-.16-.02-.32-.02-.48s.04-.3.11-.42l-.99-.5-3,.99-.49.98c.28.14.47.33.59.59.11.26.2.46.24.61l4.27,13.03c.04.09.08.28.13.57.05.28,0,.56-.12.81l.98.49,3-.98.5-.98c-.21-.1-.38-.28-.52-.52-.14-.25-.24-.44-.29-.6l-4.27-13.03ZM218.95,289.75l-1.73-16.32c-.03-.25-.01-.46.04-.64.05-.17.11-.32.17-.43.08-.12.17-.23.28-.32l-.66-1.11-4.13,1.83.21.49c.12.27.2.51.25.7l1.71,12.81-8.33-9.87c-.06-.06-.13-.14-.18-.25-.05-.13-.11-.25-.17-.4l-.22-.49-4.15,1.83.39,1.24c.13-.03.28-.02.43,0,.12.04.26.09.42.17.17.08.34.21.51.4l10.95,12.23,4.22-1.88ZM230.18,280.09l-2.29-3.8,4.33-2.63-1.67-2.75-4.34,2.62-1.87-3.11,4.15-2.51c.43-.27.8-.55,1.06-.85.26-.3.46-.58.6-.85.16-.31.27-.62.31-.92l-2.08-1.5c-.22.3-.51.55-.88.77-.36.23-.72.44-1.06.65l-7.17,4.33.05,1.33c.17.06.35.14.52.24.16.1.31.21.45.32.15.12.29.27.39.46l6.01,9.93c.21.36.35.66.43.91.08.26.1.48.1.67.02.21-.02.36-.09.48l1.44,1.05,6.89-4.16c.49-.3.9-.57,1.23-.83.34-.26.59-.5.79-.71.23-.23.42-.45.55-.65l-1.96-3.26-1.31.78c.03.22.03.42-.03.64-.05.2-.13.39-.26.58-.14.2-.33.36-.58.52l-3.72,2.25ZM233.44,263.35c-.2-.25-.38-.43-.53-.55-.15-.11-.29-.21-.39-.28-.14-.05-.25-.08-.35-.1l.13-1.09,5.3-4.16c.52-.41,1.09-.73,1.72-.95.61-.22,1.23-.31,1.85-.28.62.03,1.22.19,1.8.49.59.3,1.13.76,1.62,1.39l1.03,1.31c.76,1,1.18,1.99,1.27,2.99.08.99-.09,1.94-.51,2.86l3.36,1.61c.3.13.58.21.82.22.25,0,.48-.01.68-.08.22-.07.42-.18.61-.33l1.03,1.32c-.13.16-.28.34-.47.55-.16.17-.37.38-.63.61-.23.22-.53.46-.84.71-.24.18-.49.3-.76.35-.28.06-.56.07-.84.04-.29-.03-.58-.09-.86-.18-.27-.08-.55-.18-.82-.29l-3.77-1.67c-.23.15-.48.31-.74.47s-.48.26-.64.31l2.38,3.03c.1.12.25.28.47.46.22.18.43.29.66.31l-.13,1.09-2.48,1.95-1.09-.13c.04-.27-.03-.54-.16-.8-.16-.25-.26-.41-.32-.49l-8.39-10.68ZM240.46,266.06c.23-.05.47-.15.71-.29.24-.14.47-.3.69-.47.7-.55,1.09-1.21,1.16-1.99.07-.78-.11-1.45-.57-2.02l-.8-1.01c-.37-.47-.77-.69-1.19-.66-.43.03-.93.25-1.47.68l-1.9,1.49,3.37,4.29ZM255.83,263.58c.28-.06.57-.13.88-.22.3-.08.67-.26,1.12-.51.42-.26.95-.63,1.56-1.14.61-.5,1.36-1.2,2.26-2.11.61-.61,1.09-1.24,1.44-1.86.34-.62.57-1.22.67-1.78.1-.57.09-1.09-.05-1.59-.14-.48-.39-.9-.74-1.25l-1.39-1.38c-.45-.45-.88-.79-1.28-1.02-.4-.23-.84-.36-1.3-.39-.46-.03-.98.04-1.56.22-.59.16-1.3.4-2.13.72-1.05.41-1.88.73-2.46.95-.6.23-1.05.38-1.36.46-.32.07-.56.08-.71.02-.14-.06-.3-.18-.46-.34l-.46-.44c-.32-.32-.37-.68-.18-1.11.2-.42.58-.93,1.15-1.5.44-.44.83-.77,1.19-.99.35-.22.66-.37.94-.47.28-.09.52-.13.72-.11.2.02.35.05.46.1l1.19-1.21-2.56-2.54c-.46.16-1.07.5-1.83,1.04-.76.53-1.6,1.27-2.52,2.2-.86.86-1.5,1.63-1.92,2.32-.42.69-.69,1.31-.77,1.87-.11.56-.05,1.08.17,1.56.21.48.53.93.96,1.35l1.1,1.09c.51.51,1.03.82,1.53.94.51.12,1.03.12,1.54.02.53-.1,1.05-.27,1.59-.51.54-.24,1.08-.46,1.63-.66.78-.29,1.41-.53,1.91-.73.5-.2.89-.35,1.2-.45.3-.11.55-.15.71-.13.17.02.32.09.46.23l.99.98c.14.14.27.3.35.47.09.17.1.38.05.62-.05.24-.18.53-.39.87-.21.34-.54.73-1.01,1.2-.41.41-.8.72-1.19.94-.39.22-.74.38-1.06.47-.33.1-.62.15-.87.15s-.44-.02-.56-.06l-1.37,1.37,2.36,2.35ZM259.3,238.41c-.15-.13-.29-.26-.4-.41-.1-.13-.19-.26-.28-.4-.08-.13-.13-.27-.14-.41l-1.09.11-2.01,2.44.12,1.09c.3-.03.58.03.81.18.23.15.41.28.53.38l10.61,8.69c.08.06.21.2.4.42.2.21.31.46.34.73l1.1-.11,1.99-2.44-.11-1.09c-.22.02-.46-.03-.7-.16-.26-.13-.45-.24-.57-.34l-10.6-8.69ZM275.2,239.86c.23.16.4.31.54.45.11.14.2.26.26.34.06.13.09.25.12.34l1.08-.21,1.78-2.61-.22-1.08c-.12.01-.26,0-.38-.01-.28-.02-.61-.16-.99-.42l-10.34-7.04.82-1.2c.19-.28.39-.48.59-.59.21-.11.41-.19.61-.23.22-.04.42-.04.61,0l.85-1.26-3.1-2.11c-.2.09-.43.26-.7.5-.21.18-.48.45-.78.78-.29.34-.63.77-.99,1.29l-3.48,5.13c-.36.53-.64.99-.84,1.4-.21.39-.36.74-.44,1.01-.12.32-.19.61-.2.84l3.1,2.11.86-1.25c-.11-.17-.18-.36-.22-.58-.05-.2-.05-.41-.01-.64.02-.24.13-.49.33-.77l.81-1.2,10.33,7.02ZM274.4,209.8l-1.95,3.76c.18.09.33.18.46.27.13.09.25.17.35.24.12.07.2.13.26.18l3.61,5.14.69.8-1.04-.11h-6.28c-.09,0-.19-.04-.3-.1-.11-.06-.25-.11-.4-.17-.15-.06-.32-.13-.49-.22l-1.95,3.75,1.06.73c.1-.06.22-.13.34-.2.12-.06.26-.1.44-.14.19-.04.4-.06.65-.07l9.75-.27,4.36,2.27c.25.13.44.26.58.39.13.13.24.23.31.31.07.12.12.23.16.32l1.03-.32,1.47-2.81-.33-1.04c-.13.03-.25.03-.39.03-.27.01-.62-.09-1.03-.3l-4.09-2.13-5.59-8.45c-.27-.41-.42-.74-.45-1.01-.02-.12-.04-.25-.04-.38l-1.2-.46ZM53.1,66.81c-.33-.24-.66-.4-1.02-.48-.34-.08-.7-.12-1.07-.1-.36.02-.73.07-1.09.15-.36.09-.71.19-1.05.3l.29,2.91c.35,0,.65.07.88.21.24.13.49.31.76.51l6.96,5.46c.08.06.14.14.17.21-.94.17-1.8.45-2.58.83-.77.37-1.51.82-2.24,1.35l-5.2-4.08c-.51-.4-1-.65-1.5-.77-.5-.12-.97-.12-1.4-.03-.32.05-.62.18-.92.4-.29.21-.63.55-1.01,1.04-.21.27-.44.58-.68.94-.25.36-.52.8-.81,1.3l2.08,2.23c.05-.09.12-.21.23-.34.36-.46.78-.76,1.26-.9.49-.15.99-.03,1.48.36l3.92,3.07c-.09.31-.13.62-.14.94,0,.31,0,.58.02.82.04.31.08.59.13.86.1.13.22.25.34.34.13.11.26.21.39.31.46.37.96.65,1.47.85.51.2,1.02.3,1.52.29.5-.01.99-.14,1.46-.39.47-.25.9-.62,1.29-1.13.17-.37.27-.74.3-1.1.04-.36.03-.69-.03-.99-.05-.31-.13-.63-.26-.92l-1.71-1.34c.38-.26.8-.46,1.26-.62.47-.15.95-.26,1.44-.31s.99-.07,1.48-.04c.5.03.98.09,1.42.19.12-.14.24-.34.4-.6.16-.26.3-.55.43-.87.14-.32.25-.65.34-1.01.08-.34.11-.69.07-1.02-.11-.67-.33-1.26-.65-1.78-.33-.52-.72-.96-1.17-1.31l-7.29-5.72ZM70.51,51.08c-.38-.38-.8-.69-1.25-.95-.44-.25-.91-.39-1.4-.43-.48-.04-.97.02-1.47.18-.5.17-.99.48-1.47.92.07.1.13.25.2.46.07.2.12.42.15.66.03.23.02.46-.01.69-.03.23-.09.44-.2.62-.41-.24-.91-.36-1.51-.35-.58,0-1.18.29-1.8.86-.74.68-1.11,1.4-1.1,2.14.01.74.24,1.36.7,1.85.43.47.98.76,1.68.86.68.11,1.38-.07,2.08-.53.4.5.75,1.13,1.06,1.86.32.73.59,1.51.84,2.31.24.81.45,1.61.61,2.41.15.8.28,1.53.37,2.18-.24-.11-.5-.26-.79-.45-.29-.19-.57-.41-.85-.63-.28-.23-.55-.45-.8-.68-.26-.23-.46-.43-.63-.6-.46-.49-.85-.98-1.14-1.43-.31-.46-.59-.9-.85-1.33-.26-.43-.52-.85-.8-1.28-.28-.43-.62-.87-1.03-1.31-.7-.76-1.45-1.19-2.25-1.3-.81-.11-1.68.27-2.61,1.14-.24.23-.52.5-.82.82-.29.32-.62.7-1,1.15l1.72,2.55.11-.1s.06-.06.1-.11c.04-.05.08-.1.14-.15.54-.5,1.04-.73,1.5-.68.47.04.85.23,1.16.56.22.23.47.55.76.95.29.4.6.83.92,1.3.33.47.67.94,1.03,1.41.35.48.71.9,1.08,1.3.65.7,1.35,1.31,2.1,1.84.76.52,1.64.91,2.68,1.17l3.99-3.71c-.19-1-.42-2.02-.69-3.11-.28-1.08-.6-2.15-.98-3.2-.38-1.05-.8-2.04-1.26-2.98-.46-.94-.97-1.76-1.54-2.45.05-.08.12-.21.18-.38s.12-.35.17-.55c.06-.2.11-.4.13-.61.03-.2.04-.39.01-.55.18.34.38.68.58,1.01.17.3.37.6.58.91.23.31.46.59.68.84l4.74,5.12c.23.24.43.5.6.77.16.27.25.54.23.82l1.24.03,1.94-1.8c.08-.34.05-.75-.1-1.23-.14-.47-.36-.85-.63-1.14l-7.09-7.65ZM82.24,42.52c-.62-.88-1.34-1.43-2.16-1.65-.83-.22-1.64-.05-2.44.51l-4.41,3.1c-.31.22-.57.5-.78.84-.21.34-.34.71-.39,1.12-.02.18-.04.37-.06.57-.02.2-.03.38-.04.55,0,.2-.01.39-.02.59l2.48.37c.13-.47.51-.94,1.15-1.38l2.88-2.02c.23-.16.42-.14.57.07l5.78,8.24c.39.56.56,1.07.5,1.55l1.26.17,2.17-1.52c.11-.42.14-.85.06-1.28-.08-.43-.24-.82-.47-1.16l-6.07-8.66ZM94.93,35.13c-.52-.94-1.18-1.57-1.98-1.89-.8-.31-1.62-.24-2.45.23l-4.71,2.62c-.39.21-.68.51-.9.9-.22.4-.37.78-.48,1.16-.13.46-.23.95-.29,1.45l2.41.64c.18-.3.36-.54.57-.74.2-.19.45-.37.75-.53l3.07-1.71c.25-.13.44-.08.58.16l3.64,6.56c.29.52.36,1.01.21,1.45-.15.45-.48.81-.98,1.09-.09.05-.17.09-.25.12-.08.04-.17.07-.27.1l1.9,2.43,1.57-.66c.15-.06.28-.12.42-.18.12-.05.25-.12.37-.18.96-.53,1.58-1.2,1.88-2,.29-.8.15-1.72-.42-2.76l-4.6-8.26ZM93.05,29.55l-1.12-2.31c-.54-.02-1.15.01-1.84.1-.6.09-1.32.26-2.16.5-.83.25-1.78.62-2.82,1.13-.91.44-1.72.92-2.41,1.45-.69.53-1.27,1.03-1.74,1.52-.46.49-.83.94-1.09,1.35-.27.41-.43.7-.46.9l1.57,1.73c.71-.68,1.52-1.32,2.41-1.92.9-.6,1.86-1.15,2.88-1.64,1.04-.5,2.09-.92,3.16-1.25,1.06-.33,2.1-.55,3.1-.66l.53-.89ZM113.05,26.89c-.23-.59-.53-1.07-.9-1.42-.36-.35-.76-.61-1.19-.76-.27-.09-.58-.12-.97-.09-.38.02-.76.11-1.15.26-.2.08-.4.18-.59.3-.2.12-.38.27-.55.44l-3.43,3.64c-.47-.6-1.01-1-1.6-1.19-.69-.22-1.45-.16-2.3.18-.14.06-.3.13-.46.21-.16.09-.33.18-.5.27l-1.54.8.68,3,.14-.06s.07-.04.13-.07c.05-.03.11-.06.19-.09.17-.06.35-.12.56-.17.21-.05.4-.06.59-.02.36.05.64.17.86.38.21.21.38.47.5.78l3.3,8.28c.17.42.26.76.3,1.02.03.26,0,.5-.07.75l1.16.47,2.46-.99.09-.16c.16-.36.24-.74.27-1.15.02-.41-.04-.78-.17-1.13l-3.04-7.61,3.24-3.63c.1-.08.15-.12.17-.13.11-.05.21.06.31.29l3.54,8.89c.14.33.24.65.32.96.08.31.06.61-.05.89l1.14.47,2.47-.98c.23-.33.36-.73.38-1.19.01-.47-.06-.89-.2-1.25l-4.06-10.19ZM132.01,21.44c-.11-.38-.27-.71-.5-1-.22-.28-.48-.53-.77-.75-.3-.22-.62-.4-.95-.55-.33-.16-.67-.3-1-.42l-1.59,2.47c.28.22.47.46.57.7.11.25.2.54.27.87l2.22,9.24c-.28.28-.62.51-1.01.71-.39.2-.79.34-1.19.44-.7.17-1.36.14-1.98-.07-.62-.22-1.03-.74-1.23-1.55-.09-.35-.1-.67-.05-.96.05-.29.15-.55.3-.79.15-.24.32-.43.51-.58.19-.15.39-.25.6-.3l-.25-1.01c-.6-.04-1.16-.15-1.67-.34-.44-.16-.87-.39-1.28-.7-.4-.32-.67-.76-.81-1.34-.08-.35-.09-.65-.02-.9.07-.25.18-.47.34-.67.16-.19.35-.34.56-.47.22-.12.43-.21.65-.26l-.21-.84-1.44-1.68c-.68.17-1.3.43-1.88.8-.57.38-1.06.82-1.45,1.33-.4.52-.67,1.09-.83,1.72-.15.63-.15,1.28.01,1.95.11.51.3.95.54,1.33.24.38.52.69.84.93.31.24.64.42.98.53.34.11.69.16,1.03.14-.35.49-.57,1.04-.65,1.65-.07.62-.05,1.22.1,1.82.22.91.61,1.63,1.17,2.18.56.55,1.21.96,1.95,1.22.74.26,1.52.4,2.35.41.83,0,1.62-.09,2.37-.27.61-.15,1.29-.42,2.01-.81.73-.39,1.37-.85,1.95-1.39.58-.53,1.02-1.13,1.35-1.78.32-.65.4-1.32.24-1.99l-2.18-9.04ZM146.52,20.36c-.12-1.06-.49-1.89-1.11-2.48-.61-.59-1.41-.83-2.38-.72l-5.36.61c-.37.04-.73.16-1.08.36-.35.2-.65.46-.89.78-.1.15-.21.32-.32.47-.11.17-.21.32-.3.47-.11.17-.2.35-.3.52l2,1.51c.34-.36.89-.57,1.67-.67l3.49-.39c.28-.04.43.08.45.33l1.14,10.01c.08.67-.02,1.2-.3,1.59l1.01.76,2.64-.3c.31-.31.52-.67.67-1.09.14-.42.19-.83.14-1.25l-1.18-10.51ZM165.07,20.06c.03-1.08-.24-1.95-.79-2.61-.55-.67-1.29-1.01-2.25-1.02l-7.63-.13c-.38,0-.72.08-1.06.24-.33.16-.63.36-.9.6-.27.23-.51.47-.72.72-.21.24-.39.45-.51.63l1.79,1.76c.28-.3.66-.44,1.14-.43l6.34.1c.28.01.41.14.41.4l-.05,3.28c-.46-.14-.95-.26-1.48-.35-.52-.09-1.04-.13-1.56-.14-.81-.01-1.61.07-2.4.24-.79.18-1.49.48-2.1.91-.62.43-1.11.98-1.49,1.66-.37.68-.58,1.5-.59,2.47-.01.62.07,1.17.24,1.66.17.49.41.92.69,1.27.3.36.62.66.99.88.36.23.75.39,1.14.49l1.76.03.86-1.72c-.18-.02-.38-.08-.58-.17-.22-.09-.4-.22-.58-.4-.19-.17-.33-.39-.46-.65-.12-.26-.18-.58-.17-.96.01-.52.11-.94.3-1.27.2-.33.43-.61.73-.81.29-.21.61-.35.96-.44.35-.08.69-.12,1.04-.12.45.01.85.05,1.18.11.33.06.61.14.83.22.24.08.45.18.62.31l-.05,3.55c0,.4-.05.71-.13.95-.09.24-.21.44-.38.59l.91.88,2.59.04c.32-.25.6-.57.82-.95.23-.39.34-.81.35-1.26l.17-10.58ZM169.52,10.17c-.37.29-.78.53-1.24.71-.41.17-.9.31-1.48.43-.58.12-1.25.15-2,.09l-3.62-.26c-.4-.03-.73-.21-1-.52-.26-.32-.44-.65-.53-1l-2.22,1.45-.02.15c-.01.17,0,.44.03.8.04.36.17.74.39,1.14.22.39.57.75,1.04,1.06.47.31,1.16.5,2.05.57l3.15.23c.85.06,1.65.01,2.39-.15.74-.17,1.4-.37,1.99-.61.58-.23,1.07-.48,1.45-.74.39-.26.65-.45.78-.59l-1.14-2.77ZM184.81,21.6c.04-.4,0-.77-.1-1.11-.1-.35-.25-.67-.45-.98-.19-.31-.42-.6-.66-.87-.26-.26-.51-.52-.78-.76l-2.39,1.71c.18.3.27.59.27.86s-.02.58-.07.91l-1.37,9.4c-.37.15-.77.24-1.2.28-.44.04-.86.03-1.27-.04-.71-.1-1.31-.37-1.81-.8-.5-.44-.69-1.06-.57-1.89.05-.35.16-.65.31-.9.15-.25.35-.46.57-.63.23-.16.45-.28.69-.35.23-.07.45-.08.67-.05l.15-1.03c-.55-.26-1.03-.57-1.43-.93-.36-.31-.67-.69-.92-1.13-.27-.44-.34-.96-.27-1.54.06-.36.16-.64.32-.85.16-.21.34-.37.57-.49.22-.12.46-.2.69-.23.25-.04.48-.04.7-.01l.12-.85-.72-2.09c-.69-.1-1.37-.08-2.04.05-.68.13-1.3.36-1.85.7-.55.33-1.03.76-1.41,1.28-.38.52-.62,1.14-.71,1.83-.07.51-.07.99.01,1.43.09.44.24.83.44,1.18.2.34.44.62.72.86.27.23.58.4.9.5-.5.33-.91.76-1.22,1.31-.29.53-.49,1.11-.58,1.72-.13.92-.05,1.74.28,2.46.32.72.77,1.34,1.35,1.85.59.52,1.27.94,2.04,1.25.76.31,1.53.52,2.3.63.63.09,1.35.09,2.16,0,.82-.09,1.6-.28,2.33-.56.73-.29,1.37-.67,1.91-1.16.54-.48.87-1.07.97-1.76l1.34-9.2ZM203.82,22.73c-.28.02-.56.08-.84.21-.26.09-.53.24-.85.43-.3.2-.6.48-.87.83-.44-.73-1.04-1.31-1.79-1.74-.75-.43-1.53-.77-2.33-1.01-.84-.25-1.67-.35-2.51-.3-.83.05-1.6.24-2.32.55-.71.32-1.34.77-1.87,1.34-.54.58-.92,1.28-1.17,2.1-.13.44-.22.89-.26,1.35-.05.46-.03.92.04,1.38.08.46.21.89.4,1.3.2.42.48.78.85,1.09-.61.24-1.07.59-1.39,1.06-.32.47-.59.97-.8,1.48-.21.5-.42.97-.61,1.39-.2.42-.49.68-.87.8l-.24.77,2.68.8c.41.12.77.1,1.13-.05.34-.16.65-.39.94-.7.27-.31.52-.67.77-1.06.23-.4.45-.78.67-1.16.2-.38.44-.67.74-.88.3-.21.62-.36.95-.46.33-.1.67-.15.99-.14.33.01.63.05.9.13l.38-.54-.09-1.99c-.21-.12-.46-.23-.74-.31-.35-.1-.71-.17-1.09-.2-.39-.03-.79-.04-1.21-.02-.21-.27-.33-.61-.35-1-.03-.39.02-.8.14-1.21.28-.91.78-1.58,1.51-1.98.73-.4,1.53-.48,2.38-.23.65.2,1.18.51,1.62.94.43.43.78.92,1.05,1.48l-2.81,9.4c-.13.48-.15.93-.06,1.38.1.45.27.81.54,1.09l2.72.81,1.19-.55c-.13-.33-.17-.63-.17-.9.03-.27.08-.57.17-.9l3.17-10.59c.26-.86.54-1.49.85-1.88.31-.4.68-.67,1.07-.85l.19-.63-2.77-.82ZM207.1,22.69l.91-2.39c-.35-.41-.79-.83-1.34-1.27-.47-.37-1.08-.78-1.84-1.23-.76-.45-1.67-.88-2.73-1.29-.96-.36-1.86-.61-2.73-.76-.85-.14-1.62-.23-2.3-.23-.68,0-1.25.04-1.73.12-.48.08-.81.18-.98.28l-.18,2.33c.97.05,2,.2,3.05.44,1.06.24,2.12.57,3.18.98,1.07.41,2.09.88,3.07,1.43.97.55,1.84,1.16,2.61,1.81l1.01-.22ZM221.56,35.27c.45-.98.56-1.88.33-2.7-.23-.83-.78-1.44-1.64-1.84l-6.93-3.21c-.34-.16-.69-.23-1.07-.22-.36.01-.72.07-1.07.17-.33.11-.66.23-.94.36-.3.14-.53.26-.72.38l.93,2.33c.37-.15.78-.13,1.21.07l5.76,2.66c.25.11.32.29.21.52l-1.38,2.97c-.35-.31-.75-.62-1.19-.91-.45-.29-.9-.54-1.37-.77-.74-.34-1.51-.59-2.3-.75-.8-.16-1.55-.16-2.28-.02-.73.14-1.41.45-2.04.91-.62.46-1.14,1.14-1.54,2.02-.26.56-.41,1.1-.45,1.61-.04.52,0,1,.11,1.45.13.44.3.85.54,1.2.25.35.53.66.85.92l1.6.74,1.48-1.22c-.15-.09-.31-.22-.46-.39-.15-.17-.28-.36-.36-.59-.09-.23-.14-.49-.16-.78,0-.29.07-.61.23-.95.21-.46.48-.81.81-1.04.31-.23.63-.38.99-.44.34-.07.69-.07,1.05,0,.35.06.68.16.98.31.42.19.77.38,1.04.58.28.2.51.38.66.54.19.17.33.35.46.53l-1.49,3.22c-.17.36-.34.63-.51.81-.17.18-.37.32-.58.39l.48,1.17,2.35,1.09c.4-.1.77-.28,1.13-.54.37-.26.65-.6.84-1.01l4.43-9.6ZM227.99,54.11c.41.26.88.42,1.45.49.55.07,1.12.03,1.71-.1.59-.13,1.15-.36,1.67-.69.53-.33.98-.77,1.34-1.32l7.75-12.02c.22-.33.43-.61.61-.81.2-.21.44-.33.7-.4l-.22-.97-2.51-1.61c-.38.06-.72.21-1.06.43-.33.22-.6.49-.81.81l-8.32,12.89c-.12.18-.22.28-.32.29-.09.01-.23-.04-.41-.15l-3.18-2.06c-.37-.24-.5-.59-.41-1.05.09-.46.31-.96.67-1.51.42-.64.9-1.28,1.51-1.93.61-.65,1.17-1.23,1.71-1.74.55-.52.99-1.03,1.31-1.53.26-.4.44-.78.55-1.15.12-.36.2-.69.22-.99.04-.3.02-.57-.03-.8-.05-.24-.09-.44-.15-.62-.2-.64-.74-1.25-1.62-1.83-.07-.04-.14-.08-.22-.12-.08-.04-.21-.11-.37-.2-.17-.09-.39-.21-.65-.35-.29-.14-.66-.33-1.12-.56l-2.04,2.3.2.13c.13.08.31.21.54.38.22.17.41.36.55.57.14.22.29.46.41.75.11.28.09.56-.09.84-.07.11-.18.22-.3.3-.76.6-1.5,1.25-2.21,1.96-.71.71-1.42,1.62-2.12,2.72-.41.63-.71,1.27-.89,1.92-.17.64-.25,1.24-.23,1.81.02.57.15,1.08.37,1.55.21.46.54.82.96,1.09l5.05,3.26ZM249.74,54.77c.69-.82,1.04-1.66,1.04-2.52s-.36-1.59-1.11-2.21l-4.14-3.46c-.29-.24-.63-.42-1.01-.53-.38-.11-.78-.14-1.19-.1-.18.03-.36.06-.57.09-.19.04-.37.07-.53.11-.2.05-.39.09-.58.14l.28,2.49c.5,0,1.05.25,1.64.75l2.69,2.26c.21.18.24.36.07.57l-6.46,7.72c-.43.52-.89.82-1.36.88l.15,1.26,2.03,1.7c.44.01.86-.08,1.26-.26.41-.19.73-.44,1-.76l6.78-8.11ZM258.25,57.87c-.29-.3-.62-.52-1.02-.65-.39-.12-.77-.2-1.14-.23-.37-.04-.71-.03-1.01,0-.3.04-.52.08-.62.1.03.44-.06.87-.25,1.3-.2.43-.45.8-.8,1.12l-6.64,6.24c-.59.54-1.11.83-1.61.86v1.26s1.82,1.94,1.82,1.94c.35.05.76.02,1.2-.1.44-.12.83-.33,1.17-.65l7.43-6.97c.06-.06.11-.12.17-.17.07-.06.1-.12.1-.18l3.19,3.39c.09.09.09.16.01.23l-7.39,6.94c-.27.26-.54.46-.79.6-.25.14-.51.22-.8.24v1.26s1.79,1.91,1.79,1.91c.4.07.81.04,1.24-.1.44-.13.8-.35,1.13-.65l7.71-7.24c.78-.73,1.23-1.53,1.33-2.37.11-.84-.17-1.62-.84-2.33l-5.39-5.74ZM274.19,76.12c-.31-.06-.58-.2-.8-.41-.22-.21-.42-.44-.6-.69l-3.21-4.33-2.85-.03-.58.42c.04.48.04.99,0,1.56-.05.48-.11,1.03-.22,1.66-.09.63-.26,1.28-.47,1.96-.3.95-.73,1.74-1.26,2.39-.54.65-1.05,1.14-1.5,1.48-.35.27-.73.45-1.16.57-.42.12-.78-.02-1.05-.4-.17-.23-.21-.48-.11-.78l-.72-.98-2.7.58c-.02.41,0,.83.04,1.24.05.36.13.76.27,1.19.14.43.36.86.67,1.27.4.52.85.97,1.38,1.32.53.35,1.11.57,1.72.65.63.09,1.28.03,1.99-.17.7-.21,1.43-.58,2.18-1.14.13-.09.27-.2.41-.32.14-.12.29-.25.41-.37.46-.41.87-.88,1.22-1.42.35-.53.65-1.08.92-1.67.26-.58.49-1.16.68-1.76.19-.6.35-1.16.48-1.68l.86,1.18c.21.27.46.49.77.68.31.18.62.32.95.43.32.1.63.17.95.23.3.04.57.05.77.04l.57-2.68ZM23.92,150.32s.08-.04.15-.09c.3-.18.59-.4.82-.68.57-.65.84-1.49.77-2.35-.13-1.67-1.54-2.98-3.21-2.98-.08,0-.17,0-.25.01-.86.07-1.65.46-2.2,1.12-.57.66-.84,1.49-.77,2.35.13,1.75,1.67,3.11,3.46,2.98.43-.04.85-.15,1.23-.35M19.91,140c-.29,1.15.06,2.23.55,2.79.41-.17,1.23-.36,1.6-.39,1.21-.08,2.19.25,3.03.71.56-.48,1.06-1.42.95-2.59-.1-1.09-.54-1.82-.96-2.91-.35-.93-.82-1.71-1.34-3.11-1.92,2.47-3.35,3.55-3.84,5.5M20.01,151.9c-.52.52-.95,1.63-.75,2.79.33,2,1.67,3.18,3.4,5.79.62-1.36,1.15-2.09,1.58-2.99.49-1.06.99-1.75,1.17-2.83.21-1.16-.22-2.14-.75-2.66-.87.4-1.87.64-3.07.47-.38-.05-1.19-.38-1.59-.57M15.31,149.5c1.21.33,2,.22,2.49.04-.2-.5-.32-1.03-.37-1.59-.09-1.19.2-2.34.8-3.35-.45-.26-1.23-.52-2.52-.37-1.85.21-3.75,1.48-4.77,2.27.89.95,2.57,2.51,4.37,3M29.22,150.49c1.81-.21,3.67-1.48,4.66-2.26-.86-.91-2.51-2.42-4.26-2.9-1.22-.33-2.07-.17-2.55.02.22.52.41,1.06.46,1.65.09,1.12-.22,2.18-.77,3.14.44.24,1.25.5,2.46.36M291.93,150.23c.06.05.15.09.15.09.38.2.79.31,1.22.34,1.78.14,3.33-1.22,3.46-2.97.07-.86-.21-1.69-.77-2.35-.57-.66-1.35-1.05-2.2-1.12h-.25c-1.68,0-3.08,1.3-3.21,2.98-.07.86.21,1.7.77,2.35.24.28.52.5.83.68M295.53,142.79c.49-.56.85-1.64.57-2.79-.5-1.96-1.92-3.03-3.84-5.5-.52,1.4-1,2.18-1.35,3.11-.41,1.09-.85,1.82-.94,2.91-.12,1.18.38,2.12.94,2.59.84-.47,1.82-.79,3.04-.71.38.03,1.19.22,1.59.39M296.74,154.69c.2-1.15-.23-2.27-.75-2.79-.4.2-1.22.52-1.59.57-1.21.17-2.21-.08-3.08-.47-.52.51-.96,1.5-.75,2.66.19,1.08.69,1.77,1.18,2.83.42.9.95,1.63,1.58,2.99,1.72-2.61,3.05-3.79,3.39-5.79M298.21,149.53c.48.18,1.28.3,2.48-.04,1.8-.49,3.47-2.06,4.36-3-1.02-.79-2.9-2.06-4.75-2.27-1.3-.15-2.08.11-2.52.37.6,1,.88,2.15.8,3.34-.05.56-.17,1.1-.36,1.59M282.11,148.23c1,.78,2.86,2.05,4.66,2.26,1.22.14,2.01-.12,2.47-.36-.56-.96-.85-2.03-.77-3.14.05-.59.23-1.13.45-1.65-.48-.19-1.32-.35-2.55-.02-1.74.48-3.39,1.99-4.27,2.9M142.5,158.28c.4-.22-.74-.89-1.28-.94,0,0-.84.2-.93.84-.07.65,1.8.31,2.21.1M229.35,120.13c.53.31,1.08.46,1.31-.31.23-.77-.23-1.61-.23-1.61-.55-.46-1.23-.15-1.55.15-.3.31-.07,1.46.46,1.77M198.37,220.5c-.76.5-1.27.76-2.44,1.26,0,0-1.01.33-2.19.59-.91.2-1.01.84.17,1.34.83.36,3.01-.13,4.03-.85,1.43-1.01,1.17-2.85.43-2.35M233.58,124.82c1.07.62,1.39-.77,1.92-1.38.54-.61-.15-1.31-.46-2.08-.3-.77-1-.53-1.54-.77-.53-.23-.23-.77-.77-.31-.54.47-1.07,1.61-1.07,1.61l-.16.85c-.15.85,1.01,1.46,2.08,2.08M233.1,121.55c.24-.27.71-.04.75.48.04.52.32.83-.4.64-.41-.11-1.06-.34-.34-1.12M156.2,107.36c.76-.08,1.42-.25,2.5-.33,1.09-.08,1.84-.08,2.75.25.91.33.83-.04,1-.38.16-.33,0-.84-.41-1.08-.42-.25-.89-.39-1.53-.39-.93,0-2.65.24-3.32.16-.67-.08-1.42.1-1.85.52-.75.75.11,1.33.86,1.24M157.87,132.51c-.83.5-.42.83.67.83.68,0,2.34-.21,2.92-.16,1.08.08,1.16-.67,1.16-.67,0,0-.5-.52-2.08-.59-2.09-.08-2.67.59-2.67.59M160.37,151.78c-.75.5-.25,1.16.25,1.08.5-.08.93-.25,1.08-.59.17-.33-.96-.75-1.33-.5M160.56,144.51c-1.34,0-1.59.55-1.59.55,0,0-.01.77,1.4.85,1.33.08,1.59-.73,1.59-.73,0,0,0-.67-1.41-.67M168.62,110.58c.66.09,1.18.24.92-.09-.25-.33-1.4-1.8-1.4-2.22s.34-.44.84-.44c.67,0,1.76-.55,1-.88-.75-.33-2.15-.39-2.73-.3-.53.08-1.4,1.34-.55,2.26.84.92,1.41,1.61,1.91,1.67M142.16,132.04c0-.24.44-.59.21-.72-.24-.13-.75.12-.75.12-.4.29-.28.85-.21.92.32.34.73-.08.75-.32M159.37,126.34c.83-.08,2.33,0,2.25-.34-.09-.36-.73-.91-2.16-.83-1.59.08-2.34.45-2.5.83-.25.59,1.58.42,2.42.34M160.54,110.76c.75-.16,1.33.06,2,.31,1.09.41,1.42.16,1.25-.08-.16-.25-.83-1.42-1.92-1.75-1.08-.33-2.5,0-4.26,0s-2.16,1.08-2.84,1.75c0,0-.08.67.92.58,1.01-.09,1-.73,1.5-.73s2.6.08,3.34-.08M158.29,140.85s-.08.59.67.75c.57.13,2.08,0,2.66-.08.59-.08.75-.58.75-.58,0,0-.63-.64-1.96-.72-1.33-.09-2.13.63-2.13.63M160.04,129.59c.84.08,2.01.33,2.42,0,.42-.33-1.17-1.16-2.75-1.08-1.51.08-2.17.67-2.42.83,0,0-.25.33.25.5.5.16,1.67-.33,2.5-.25M147.28,106.98c-.58.3-.36.69.39,1.1.75.42,1.33-.16,1.58.5.25.67.36,1.72.94,2.06.59.33.49.18.82-.99.22-.76-.21-2.07-.75-2.54-.85-.73-2.72-.27-2.98-.14M160.04,155.11c-.5.51-.43,1,.34,1,.51,0,.84-.16,1.08-.5.24-.33-.89-1.03-1.42-.51M161.62,148.94s-.41-.75-1-.67c-.58.09-.91.18-1,.41-.16.5.08.92,1,1,.92.08,1-.75,1-.75M159.2,158.61c-.16.33.09.75.59.75s1.09-.16,1-.66c-.08-.51-1.21-.83-1.59-.09M159.96,137.1c1.84-.08,2.37-.08,2.01-.75-.42-.75-2.95-.81-3.76,0-.99,1,.62.81,1.75.76M260.99,173.87c1.93-4.89.57-9.82-3.76-13.61-2.4-2.09-4.97-2.61-7.02-3.02-1.46-.3-2.72-.55-3.58-1.27-.79-.66-.99-1.36-.96-1.94.05-.58.32-1.05.7-1.42,1.88,1.44,3.33,1.39,4.25,1.07,1.21-.43,2.07-1.57,2.3-3.06.3-1.91-.49-3.83-2.05-5.02-4.15-3.15-10.39-2.35-14.48,1.86-3.75,3.85-3.1,7.93-2.49,9.85-2.58.9-5.71,3.63-5.46,8.51.17,3.51,1.93,6.54,4.82,8.28,2.41,1.45,5.16,1.72,7.36.72,1.65-.76,2.81-1.98,3.36-3.44,2.05,1.12,2.98,3.47,2.98,5.47s-.91,3.68-2.44,4.46c-1.31-1.87-2.98-3.13-4.95-3.56-3.53-.78-6.32.26-7.61.89l-.15-.28c-1.73-2.91-7.23-7.02-12.79-7.74-4.98-.65-11.58.23-17.03,1.57-5.47,1.35-9.25,3.2-11.42,3.95-2.19.76-5.72,1.26-5.72,1.26-.75-1.84-2.76-3.44-2.76-3.44.24-.67.24-4.28.07-5.55-.17-1.26.34-2.69.68-4.61.34-1.93.47-5.18.47-5.18,2.48-1.87,3.46-4.68,3.46-4.68l.94.18c.08,3.86,3.89,3.81,3.89,3.81,1.1,3.41,4.51,2.68,4.51,2.68,2.85,3.19,10.98,7.18,15.33,6.96,1.69-.09,3.82-.84,8.15-5.76,5-5.69,6.87-16.52,6.87-16.52,1.92-1.01,1.59-4.52,1.59-4.52,1.55-.44,1.26-3.1,1.26-3.1,1.09-1.18,3.02-1.34,5-1.6,2.37-.3,5.26.84,7.18.59,1.94-.25,4.37-2.1,5.13-3.19.76-1.09.5-2.27,1.01-3.2.5-.93,1.03-1.13,1.28-1.81.25-.67.24-.91.24-.91,0,0,1.19-1.6,1.54-2.56.46-1.31.93-1.75.08-3.08-.7-1.08-2.64-1.05-2.64-1.05.34-1.01-.25-4.12-1.18-5.13-.93-1-1.5-1.83-5.34-2.06-2.7-.16-5.75-.05-7.68.04-1.94.09-3.17.72-3.17.72h-1.53c-1.69,0-2.8,1.49-3,2.92-.3,2.08.33,3.45.07,4.46-.25,1.01-.54,1.62-.54,1.62,0,0-1.21.48-2.38,1.27-3.01,2.05-4.12,3.78-4.12,3.78-.52-2.23-1.72-2.93-1.72-2.93.08-.67-.66-2.06-.66-2.06.8-.67,2-4.48,1.84-6.75-.17-2.27-2.53-9.85-4.04-12.87-1.51-3.03-3.64-3.03-3.64-3.03.34-1.09-.13-2.92-.13-2.92,1.7-.77,1.42-4.64,1.42-4.64,1.75-1.51,1.51-5.71,1.51-5.71,1.76-4.37-1.46-6.06-1.46-6.06.1-2.43-.59-3.27-.59-3.27,0,0-.31-1.99-.65-2.91-.34-.93-1.15-2.63-3.33-2.79-2.18-.16-2.86,1.08-2.32,2.14.62,1.15,1.17,2.79,1.17,2.79-2.34-.08-3.24,1.96-3.24,1.96-4.53.33-3.78,5.29-3.78,5.29-2.77,1.68-.84,6.3-.84,6.3-.93,2.61.76,4.37.76,4.37-.43,3.61,1.25,4.7,1.25,4.7l-.42,1.09c-2.69-.5-3.28,1.93-2.36,3.78.93,1.85,2.27,9.33,3.45,14.03,1.18,4.71,2.61,6.81,2.61,6.81-1.18,2.01.08,4.45.08,4.45-1,1.6.02,3.34.02,3.34-.63.86-.75,2-.75,2-1.31-1.42-3.3-1.14-3.3-1.14-.84-1.01-5.67-5.8-5.67-5.8l-.53-.62s4.41-8.45,1.73-19.37c-2.27-9.27-4.73-16.47-35.08-57.68-.75-1.01-1.43-1.74-2.16-1.81h-.65c-.7.08-1.38.8-2.08,1.81-28.55,41.22-30.87,48.41-33.01,57.68-2.52,10.92.66,16.6.66,16.6-6.04,2.8-9.47,5.28-9.47,5.28-3.06-.31-4.41,1.97-4.57,2.25-1.1-.17-2.42.77-2.42.77l-.46-1.6c.99-1.48.14-3.52.14-3.52.29-.64,0-2.18,0-2.18.29-.35.7-.99.7-.99,0,0,.91,1.56,2.06,2.57.79.69,1.74.59,2.46.11.98-.65,1.88-2.53,1.88-2.53,0,0,1.22-.78,1.86-2.33.63-1.55-.22-3.8-.22-3.8,0,0,.57-.57.71-1.76.14-1.2-.57-3.81-.57-3.81.92-1.05.35-3.03.35-3.03,0,0,.92-1.27,1.27-2.47.35-1.19,0-3.45-1.06-4.36-1.06-.92-2.12-.07-2.12-.07l-.07-3.17s.93-.77,1.26-1.64c.45-1.17.22-2.09.22-2.09.78-.43,2-2.21,1.72-2.91-.28-.7-.6-1.44-.17-1.88.66-.69,1.26,0,1.62.07.35.07,1.91-.64,1.91-5.49s-3.22-7.74-4.35-8.66c-1.13-.91-1.49-.4-1.28.45.21.84.75,1.06,1.06,4.06.31,3.01-1.33,4.13-1.33,4.13-.34-3.6-1.4-8.3-1.4-8.3,0,0-.23-1.36-.45-2.33-.33-1.5-1.12-1.98-1.43-1.98-.27,0-.76.27-1.36,1.49-.4.82-.65,2.82-.65,2.82-.67,2.13-1.67,7.62-1.67,7.62-1.72-1.39-1.01-5.73-.57-6.84.42-1.06.08-1.67-.55-1.32-.63.35-2.09,1.09-3.55,3.6-2.4,4.12-1.06,8.54-.27,9.64.88,1.23,1.49.22,1.93.98.3.52,0,.61-.07,1.53-.06.91.59,2.38.84,2.79.28.41-2.17,3.72-2.32,5.06-.14,1.34-.2,2.77-.51,3.59-.52,1.4-2.66,5.01-4.92,9.52-2.25,4.51-2.9,7.42-2.9,7.42-2.18.42-1.7,4.22-1.7,4.22-1.64,2.02-.54,4.57-.54,4.57-2.83,10.91-.39,20.15-.39,20.15-4.54,11.51-4.1,21.52-4.1,21.52-2.08,2.42-1.1,5.36-1.1,5.36-.84,3.02,1.76,4.63,1.76,4.63.42,1.76,2.19,3.61,4.62,4.62,2.44,1,6.72.08,9.33-.76,2.6-.84,7.06-2.1,9.66-3.7,2.61-1.59,2.7-3.02,3.62-3.7.93-.68,2.51-2.35,2.57-3.54.08-1.58-1.33-3.32-1.33-3.32,0,0,1.65-5.2.31-8.15-1.35-2.93-3.11-3.01-3.7-2.43-.59.59-.2,1.21-.53,2.72-.34,1.52-2.01,2.84-2.01,2.84-1.48-1.57-5.11-.19-5.11-.19,2.85-5.56,3.41-9.23,3.41-9.23,2.79-.64,6.38-2.99,6.38-2.99,2.07.48,3.91-1.43,3.91-1.43,1.18.42,3.21-1.43,3.21-1.43,0,0,.41,4.6,3.07,9.58,1.76,3.28,2.87,4.7,3.12,6.04.25,1.35-.78,2.95-.78,2.95,0,0-2.16.2-3.44,2.68-1.17,2.27-.25,4.19-.25,4.19-.5.5-1.24,1.32-1.5,3.42-.25,2.1,1.5,3.34,1.5,3.34-.66.76-.51,1.58-.51,1.58-4.62-.09-9.41,3.02-9.41,3.02,0,0-1.15-1.3-3.35-1.42-3.31-.17-5.03,1.82-5.03,1.82,0,0-2.78-1.31-7.13-.42-4.73.97-7.3,5.1-7.3,5.1,0,0-1.41-1.34-1.34-2.3.11-1.54.37-2.64-1.06-4.33-1.48-1.75-4.11-1.41-5.71-1.75-1.59-.34-1.64-2.28-2.23-3.54-.59-1.26-1.9-1.52-1.9-1.52.07,1.11-.3,1.94-1.25,3.85-.07-.02-.13-.02-.21-.02-1.56.06-2.83-.42-3.75-1.41-1.08-1.15-1.58-2.96-1.38-4.84.25-2.3,1.32-3.57,1.89-4.09.94.94,2.49,1.64,4.75,1.52,1.69-.09,3.25-.94,4.55-2.46,2.14-2.52,3.31-6.7,2.92-10.4-.45-4.25-3.12-6.54-4.75-7.31.15-1.75-.11-4.82-1.27-7.41-1.21-2.69-3.6-4.14-5.35-5.2-.89-.54-1.67-1.1-2.01-1.49-.79-.93-.73-1.73-.66-2.23.78.57,1.81.77,2.92.51,1.69-.4,3.49-1.99,3.44-4.54-.04-1.71-1.22-3.44-3.01-4.42-1.44-.8-4.49-1.76-8.74.78-5.18,3.09-5.02,8.87-4.82,10.77-4.41,3.4-5.78,10.62-2.8,15.52.54.89,1.17,1.58,1.86,2.12-.94.68-2.53,2.02-4.18,4.19-3.03,3.98-4.15,10.43-3.68,14.48.4,3.37,2.29,5.9,3.17,6.91-.83,2.32-1.31,5.84.85,10.44,2.01,4.29,6.79,5.58,7.5,5.65-2.24,10.49,4.15,19.3,11.88,23.04,7.81,3.79,14.5.21,14.5.21l.76.84s-4.23,6.99,1.4,15.01c3.74,5.32,8.54,5.64,8.54,5.64,0,0,1.09,4.23,7.16,6.74,5.46,2.25,9.5-.56,9.5-.56,0,0,2.18,4.19,6.25,6.78,6.24,3.96,11.48,3.36,11.48,3.36,0,0,.78,1.42,2.2,1.42s2.52-.76,2.52-.76c2.01,0,4.04-1.36,4.04-1.36,0,0,1.95.69,6.22-.82,6.25-2.22,7.86-7.73,7.86-7.73,0,0,3.04,6.24,11.57,8.36,7.8,1.93,12.45-2.11,12.45-2.11,0,0,5.77,2.56,12.91-.29,7.14-2.85,8.47-8.94,8.47-8.94,0,0,2.28.73,5.62.35,3.62-.41,10.87-2.04,14.6-10.23,3.63-7.93.09-13.63.09-13.63,0,0,5.8,1.9,14.09-1.54,9.04-3.74,8.64-11.24,8.64-11.24,8.26-2.32,9.9-14.84,5.83-20.33,3.47-.71,8.11-3.91,9.22-9.22,1.1-5.26-1.31-8.91-2.44-10.15M245.32,183.01c2.19-1.08,3.51-3.38,3.51-6.16s-1.4-6.04-4.49-7.4v-.45c-.04-.57-.16-1.13-.35-1.63,3.73.29,5.7,2.48,6.7,4.36,2.03,3.8,1.56,8.68-.04,11.02-1.48,2.16-3.52,2.76-5.01,2.97,0-.96-.07-1.81-.33-2.71M235.42,202.36c-1.34-3.7-5.84-4.2-5.84-4.2,1.67-1.36,3.47-4.28,3.47-4.28,4.75,0,7.36,2.69,7.66,5.93.37,3.92-2,5.84-3.01,6.29-1,.46-1.09.64-1.36,1.92-.23,1.07-.93,3.22-3.66,3.92-2.46.64-4.55-.54-4.37-2.1.12-1,.91-.64.91-.64,0,0,.54.82,2.56.64,2.73-.25,5.1-3.46,3.64-7.47M227.91,196.85c-2.72,2.44-6.26,4.5-6.26,4.5-.82-.91-1.1-2.23-1.1-2.23,0,0,3.68-2.65,6.71-5.2,4.19-3.55,5.25-6.35,5.25-6.35-.17,4.26-1.97,6.92-4.59,9.28M229.95,178.91c1,1.19,2.36,2.82,1.95,5.8-.27,2.01-2.74,5.08-5.02,6.99-2.28,1.92-7.35,5.8-7.35,5.8-.55-.82-2.27-3-2.27-3,2.66-2.1,6.08-4.97,8.95-8.03,3.01-3.19,3.01-5.56,3.1-7.12.04-.78-.37-1.64.64-.45M208.92,222.77c.42-.82.68-2.6.68-2.6,2.07.25,2.68-.11,2.68-.11.54.35.29,2.81-.95,3.14-1.24.32-2.41-.43-2.41-.43M210.16,225.72c-.2.99-.85,1.88-2.08,1.55-1.23-.33-1.6-1.4-1.6-1.4l1.56-1.51,2,.76s.21.09.12.6M211.97,218.15c-1.09.51-3.02-.09-3.86.42-.84.5.08,1-.82,3.61-.81,2.38-7.66,5.97-10.36,6.05-2.69.08-7.97-3.61-9.91-4.62-1.93-1-6.36-1-9.58-2.43-3.95-1.77-3.44-4.2-3-5.51.86-2.56,3.56-4.65,4.54-4.61.67.02.97,1.2,1.49,1.29,1.01.17,1.93-.76,2.93-.33,1.01.41,2.94.66,4.96,1.08,2.01.42,7.81.51,10.42.59,2.61.08,4.37.08,6.3.33,1.93.25,4.62.5,6.05.16,1.43-.33,2.27-.5,2.53.5.24,1.01-.59,2.94-1.69,3.45M204.71,230.19c-1.16.06-2.16-1.28-2.01-1.7l2.2-1.22s.82.76,1.4,1.33c.25.26-.04,1.51-1.59,1.59M214.69,231.63c-.49-.72-.88-.43-.94-.82-.07-.44.92-.71,1.85-.18,1.04.58,1.78,1.89,1.61,3.71-.29,3.09-2.98,7.11-8.71,6.94-4.04-.13-6.5-2.05-6.5-2.05l.18-1.11s3.77,2.35,8.01,1.57c4.16-.75,6.36-5.26,4.5-8.06M160.54,239.04s-2.68-1.67-2.92-3.85c-.21-1.93,1.12-2.25,1.12-2.25l1.84.34s.45.93.16,2.11c-.35,1.48-.49,2.81-.2,3.65M155.35,230.29c.07-1.2-.39-2.72-.39-2.72,4.37,1.93,7.9,1.7,7.9,1.7l.56,2.56c-4.24.04-8.07-1.53-8.07-1.53M113.64,237.76c.79.79,2.14.85,1.32-.78-.68-1.37.96-1.79.96-1.79,3.85.69,6.03,2.77,6.03,2.77-.2,1.28-.97,5.31-6.11,5.22-5.15-.1-6.95-5.32-6.95-5.32,0,0-2.37.1-3.86-1.48-2.17-2.31-2.37-5.26-2.37-5.26,4.76,1.98,11.08,3.28,11.08,3.28-1.08.99-.6,2.86-.09,3.37M137.1,169.21c-2.32-2.63-2.26-8.05-.34-10.47,1.92-2.42,5.08-2.86,6.91-2.19,1.59.58,2.79,2.35,2.63,2.84-.16.5-.77.8-1.77.97-1,.16-1.56.57-2.23.48-.67-.08-1.59-.44-2.19-.44s-.75,1.2-.41,1.45c.33.25.25,1.09.33,1.33.08.25.5.59.58.92.08.33.34,1.08-.91,1.08-.69,0-.49,1.42.99,1.17,1.5-.25,2.09-.42,2.67.25.55.63-.25,1-.83,1.17-.59.16-1.34.5-1.34.5,0,0-.16.75,1.51.66.89-.04,1.99-.59,1.99-.59,0,0,.71.92.98,1.44.26.53-1.18,1.12-2.29,1.25,0,0,0,.72,1.05.85.66.09,2.1-.45,2.1-.45,0,0,.83,1.14.92,2.23,0,0-.98.4-1.9.4s-.56.71-.06,1.05c.5.33,2.1.45,2.1.45,0,0,.07,1.12-.4,2.1-.14.31-.56.38-.89.29-.33-.08-1-.08-1.17.25-.29.59.25,1.17.25,1.17l1.02.32s-.85,1.71-1.77,1.85c-.5.08-.85-.41-1.42-.16-.23.09-.11.44-.22,1.07-.05.3-.74.6-2.02.79-.5.08-1.28.09-2.38-.1-1.14-.21-1.47-1.09-1.47-1.09,0,0,3.76-1.08,4.34-4.09.53-2.72-1.21-5.23-4.34-8.75M153.44,140.75s-2.19-.45-2.49-.73c-.41-.39-.18-1.75-.18-1.75,0,0,2.29.63,2.43.82.14.69.25,1.66.25,1.66M143.64,127.74c-.88-.38-2.77-.44-3.08-.5-.32-.06-1.74.53-1.86.38-.33-.41-.79-.63-1.49-1.45-.69-.81-.95-1.76-1.57-2.96-.63-1.19-1.89-1.45-2.71-1.83-.81-.38-2.01-1.95-2.33-2.77-.31-.82-.82-1.64-1.33-1.01-.4.5-.5.94-1.07.82-.56-.12-.39-1.25-.39-1.25,0,0,.08-.88.08-1.95s.18-5.56,1.14-6.57c.95-1.01,1.57-1.42,3.27-1.29,1.2.09,2.47-.02,3.54.11.99.11,2.27.07,3.15.5.3.15.5,1.23.5,1.23,0,0,.4,2.3.85,2.93,0,0-.58.31-1.4.18-.82-.13-3.09-1.71-3.98-2.4-.88-.69-1.32-.94-2.08-.95-.66,0-1.03-.06-1.53-.22-.3-.09-.9-.03-.58.66.31.69,1.16.62,1.85.82.69.19,2.14,1.32,2.84,1.83.7.5,2.21,1.63,3.22,1.83,1,.19,2.01-.13,2.01-.13,0,0,.38.69.19,1.76,0,0-.95.07-2.08.38-1.13.31-1.45,1.13-1.51,1.38s.69,1.14,1.01,1.07c.31-.06.38-.76,1-1,.63-.25,1.39-.2,1.7-.13.31.06.27.4.33,1.03.06.63.37,1.9.31,2.08-.07.19-1.16.12-1.05.93.09.59,1.05.27,1.45.58.57.44.72.99,1.03,1.62.32.63,1,2.01,1.19,2.57.19.57.58,2.34.64,2.6,0,0-.38-.5-1.26-.88M144.53,131.77c-.26.38-.56.58-1.15,1.02-.51.38-1.06.67-1.7,1.11-.63.43-1.06.39-1.51.33-.72-.11-.88-.7-.94-1.2-.11-.82-.03-.64-.53-1.2-.51-.57-.43-1.03-.17-1.6.26-.57.59-.89,1.02-1.14.69-.39,3.34-.41,4.15.41.82.82,1.07,1.89.82,2.27M162.17,72.53s-.16,1.17-.89,1.25c-1.3.16-5.07.16-6.29,0-.7-.08-.84-1.25-.84-1.25h8.03ZM154.53,71.13l3.51-5.84,3.73,5.84h-7.24ZM189.28,113.96c-.14-.84-.7-.1-.89.89-.2.99-1.59,3.66-2.18,4.65-.6.99-.99,2.57-1.09,3.27-.1.69-.43.76-1.19.98-.8.23-2.25,1.5-2.25,1.5,0,0-.41.69-.83.8-.39.1-.81.06-1.27-.03-.52-.11-.98.01-1.77.01s-1.79.4-2.48.79c-.7.4-.78-.25-.29-1.43.49-1.19,1.48-2.52,1.57-3.12.11-.6.6-1.09.6-1.09,0,0,1.39-.49,1.78-.4.4.1.79-.29.4-.59-.4-.3-1.4-.59-2.09-.4l.2-2.37s.7-.49,1.78-.4c1.08.1,1.49.2,1.39-.4-.11-.59-1.28-1.09-1.89-.99-.59.09-1.39.2-1.39.2,0,0,.1-1.09.1-1.69s1.78-.49,2.37-1.08c.6-.59.9-.89,1.6-1.78.69-.89,1.27-1.48,2.56-1.3,1.3.2,2.19-.09,2.58-.59.4-.49-.3-.2-1.28-.39-.99-.2-2.17-.3-3.08-.3-.49,0-1.77,1.29-2.27,2.08-.49.79-1.09,1.38-2.58,1.18,0,0-.26-.59.13-1.48.4-.89,1.16-2.08,1.55-2.76.4-.7,2.64-1.06,4.45-1.06,1.68,0,3.67.33,4.85,1.62,1.1,1.19,1.59,2.31,1.78,3.3.2.99.2,3.16.3,4.06.09.89.41,2.58.02,2.78-.4.2-1.37.23-1.89.36-.39.11.4-1.03.47-2.15.1-1.2.38-1.7.21-2.68M169.55,148.36c.25-.05.53-.1.53-.1,0,0-.22,2.02-2.39,1.77-1.35-.15-2.06-1.09-2.14-2.75-.06-1.17.74-.76.74-.76,0,0,1.04,2.26,3.25,1.84M167.22,145.31s.16-3.79.41-7.04l2.68-.92s.55,4.05.72,6.14c.13,1.67-.32,3.29-1.48,3.54-1.17.25-2.33-1.71-2.33-1.71M166.88,151.78c4.34.33,5.26-3.17,5.59-6.68.26-2.79-.67-8.74-.67-8.74l.41-.64-.17-1.36s.84-.27,1.41-1.03c.58-.75,1-1.14,1-1.14.85.81,1.43,1.3,1.43,1.3-1.67,18.78-6.2,27.83-12.56,33.46-5.75,5.09-13.69,7.18-13.69,7.18,0-.92-1.13-3.36-1.13-3.36,1.64-.66,3.29-1.12,7.11-3.03,4.73-2.37,6.3-4.65,6.3-4.65,1.63-.73,3.07-2.67,3.63-4.56.92-3.09,1.34-6.74,1.34-6.74M175.11,130.42c-.1-.4-.02-1.56-.02-1.56,0,0,.95-.98,1.84-1.18.89-.2,2.61-.34,2.9-.14.3.19.66.58.79,1.36.11.75.36,2.37.01,2.71-.59.59-.8.87-1.89.97-1.08.09-1.78-.35-2.28-.84-.49-.49-1.25-.94-1.35-1.33M178.5,105.48c-.13-.05-.06-2.84-1.13-4.37,0,0,.3-1.57,1.37-1.84,1.06-.27,4.25-.27,4.25-.27l-2.19,6.26s-2.09.29-2.29.22M178.45,97.65s-1.56-2.11-6.12-3.9c-3.91-1.54-7.9-1.8-7.9-1.8-.49-.84-2.66-3.25-2.66-3.25,4.48.77,8.22,1.38,12.36,3.13,6.19,2.63,8.15,5.66,8.15,5.66l-3.82.15ZM165.1,93.49s7.49.26,11.88,4.7c0,0-.58.98-.82,1.51,0,0-4.13-3.85-10.96-4.23,0,0,.14-.95-.1-1.98M158.02,82.31c.12.06,2.06,1,3.64,2.34,1.15.98.44,2.59.44,2.59-1.72-.23-3.99-.23-3.99-.23h-.13s-2.15,0-3.76.23c0,0-.59-1.61.5-2.59,1.48-1.34,3.19-2.28,3.3-2.34M158.04,88.47c.59.03,2.76,1.92,3.89,3.21,1.14,1.31,1.47,2.91,1.22,3.91,0,0-4.71.96-5.04,1.19h-.13c-.31-.23-4.74-1.19-4.74-1.19-.24-.99.08-2.6,1.15-3.91,1.06-1.3,3.11-3.19,3.66-3.21M163.97,85.48s3.59.24,5.78,1.46c0,0-.48.64-.68,1.55,0,0-2.66-.55-5.26-1.01,0,0,.23-1.23.16-1.99M175.6,89.24c-.16.92-.74,1.22-.74,1.22,0,0-2.19-.92-4.23-1.53,0,0,.16-1.92,2.93-3.37,0,0,2.2,2.72,2.04,3.67M171.04,85.25s-1.87-.68-3.66-1.15c0,0-.89-4.13-3.82-7.72,0,0,5.53,2.67,9.03,7.72,0,0-1.06.53-1.55,1.15M165.34,83.81s-1.69-.27-2.42-.27c0,0-2.04-1.95-3.84-2.64,0,0-.27-4.26-.25-5.28,0-.47,1.96-.29,2.69.47,1.08,1.13,3,3.73,3.81,7.72M154.74,76.09c.68-.77,2.55-.94,2.55-.47,0,.78.11.77-.23,5.28-1.69.69-3.66,2.64-3.66,2.64-.69,0-2.23.27-2.23.27.76-3.99,2.56-6.58,3.58-7.72M152.61,87.48c-2.45.46-4.94,1.01-4.94,1.01-.15-.96-.69-1.6-.69-1.6,2.07-1.23,5.47-1.41,5.47-1.41-.07.77.16,1.99.16,1.99M149.25,84.11c-1.68.47-3.44,1.15-3.44,1.15-.46-.61-1.45-1.15-1.45-1.15,3.29-5.05,8.49-7.72,8.49-7.72-2.75,3.6-3.59,7.72-3.59,7.72M146.19,88.93c-1.92.61-3.98,1.53-3.98,1.53,0,0-.54-.3-.69-1.22-.16-.96,1.92-3.67,1.92-3.67,2.6,1.45,2.75,3.37,2.75,3.37M142.9,91.84c3.9-1.76,7.42-2.37,11.63-3.13,0,0-2.13,2.41-2.59,3.25,0,0-3.58.18-7.26,1.71-4.3,1.79-5.84,3.99-5.84,3.99l-3.59-.15s1.82-3.04,7.65-5.66M151.26,95.43c-6.43.38-10.28,4.28-10.28,4.28-.23-.54-.76-1.51-.76-1.51,4.13-4.44,11.09-4.74,11.09-4.74-.19,1.03-.05,1.98-.05,1.98M138.56,99.27c1,.27,1.24,1.93,1.24,1.93-.86,1.44-.69,4.71-.9,4.71-.2,0-2.05-.3-2.05-.3l-2.3-6.61s3.01,0,4,.27M154.32,162.44c1.88,1.01,4.24,1.15,4.24,1.15-.59.79-2.8,2.04-6.06,3.62-2.16,1.05-4.99,1.92-4.99,1.92-.33-.67-1.84-2.7-1.84-2.7,5.58-2.45,8.64-3.98,8.64-3.98M140.06,185.02c3.96,0,8.17-2.62,9.49-8.6,0,0,15.74-3.77,21.78-16.14,1.09.39,2.34.68,4.92.6,3.26-.1,4.31-.78,5.1-1.08-.1,3.11-.63,4.93-.63,4.93,0,0-.44-.69-1.08-1.11-.86-.58-1.19.03-.51,1.61.69,1.58,1.97,5.94,0,11.67-1.97,5.74-6.14,9.2-9.2,10.29,0,0-1.18-1.38-3.66-1.97-2.47-.6-7.41-1.28-11.07,2.37,0,0-1.98,1.28-2.48,1.28s-2.37.29-3.26.99c0,0-1.06.71-1.74.81-1.57.23-10.74-.61-14.99-5.35l-.69-.99,3.26-1s.99,1.69,4.75,1.69M156.08,220.46s-3.22-.71-6.37-2.51c0,0,4.78-5.71,6.27-14.49,1.14-6.72-.04-9.92-1.02-12.88-.25-.73.58-1.18,1.07-.97.7.3,2.36,2.4,2.46,8.33.06,4.06-.98,9.96-1.6,13.49-.69,3.95-1.3,6.97-.81,9.04M138.07,191.02c6.24,2.37,10.69,1.82,10.69,1.82,0,0,.7,2.18-.1,4.16,0,0-7.9.22-14.62-3.36-5.94-3.17-9.22-7.23-7.25-9.01h3.17s1.35,3.82,8.1,6.39M150.28,192.35c-.07-.85.97-.61.97-.61,0,0,1.98,7.97-2.61,15.48-5.2,8.48-12.54,10.73-12.54,10.73l-4.45-2.36-1.22-2.04s6.55-.87,13.68-6.41c7.14-5.56,6.25-13.37,6.16-14.79M129.23,212.13s-4.03-1.75-6.58-2.97c-1.36-.65-5.34-5.84-10.59-8.71-5.24-2.87-10.28-2.67-10.28-2.67,0,0,3.36-2.18,5.05-2.18s6.91,1.49,11.77,5.25c4.85,3.76,8.89,8.85,13.45,10.54l-2.81.74ZM92.44,203.22s-.33-.19-1.19-.57c.8-.36,2.67-2.09,3.37-3.18.46-.71,1.58-1.98,2.43-2.64,1.19-.93,3.8-2.5,5.15-1.31,0,0-6.21,3.45-9.75,7.69M100.68,199.49c3.25-.45,11.06.83,17.01,7.31,0,0-4.74-1.09-7.22-.7,0,0-6.23-6.33-15.44-2.96,0,0,2.77-3.25,5.64-3.65M104.26,208.49c-.31-.52-1.05.09-1.35.87-.55,1.4-.49,2.92.69,4.49,2.28,3.07,15.29,6.78,15.49,7.28.2.5,0,3.17,0,3.17,0,0-13.52-4.07-17.08-6.74-3.56-2.67-2.49-7.33-1.21-9.29,1.68-2.57,3.07-3.76,3.07-3.76,0,0,1.32.27,1.91.57-.69.59-.79.73-1.16,1.24-.33.47.5,1.04,1.25.4.64-.54,1.37-.97,1.37-.97l1.28.85s-1.98.89-2.18,2.27c-.2,1.38.17,2.63,3.91,3.74,4.17,1.23,7.99,2.44,7.99,2.44,0,0,.57,1.93.66,4.02,0,0-8.4-2.57-11.38-4.25-2.97-1.69-3.42-2.68-3.47-4.05-.06-1.34.52-1.78.23-2.27M116.35,212.73c-.74-.23-6.41-1.84-7.55-2.32-1.15-.47-.96-2.16.57-2.43,1.46-.24,3.9-.35,5.52.41,1.62.76,1.88,1.96,2.36,3.27.51,1.42.35,1.43-.89,1.06M101.87,204.32s-1.78,1.78-3.26,4.85c-1.12,2.31-1.52,7.61,3.31,10.32,6.33,3.56,16.97,6.69,16.97,6.69,0,0-.1,2.86-.59,2.76-6.72-1.3-17.64-4.67-21.09-8.45-3-3.29-3.65-9.65,1.5-15.99,1.18-.29,2.47-.49,3.16-.2M121.46,234.99l-3.07-1.23s2.47-3.21,2.47-11.14c0-6.82-1.91-11.43-3.29-13.81,1.88.6,5.37,2.43,5.37,2.43,0,0,2.55,3.65,2.35,12.95-.13,6.25-3.83,10.8-3.83,10.8M127,225.29c.61-7.14-1.98-12.96-1.98-12.96,0,0,2.77.89,3.96,2.48,1.19,1.58,2.28,5.58,1.39,12.56-.98,7.65-4.79,11.42-5.03,10.98-.65-1.16-2.43-2.29-2.43-2.29,0,0,3.5-3.64,4.1-10.77M131.92,217.36l3.68,2.39s2.64,2.63,1.41,8.38c-1.19,5.54-4.89,6.68-4.89,6.68l-1.56-.62c3.56-8.45,1.37-16.83,1.37-16.83M138.08,230.24c1.68-4.85.1-9.2.1-9.2,2.07.67,2.27,2.56,2.27,2.56,0,0,.64,1.88-.25,6.34-.89,4.45-3.61,6.34-4.89,6.64-1.29.3-1.98-.69-1.98-.69,0,0,3.23-1.26,4.75-5.64M140.75,233.72c2.58-5.14.99-10.6.99-10.6,1.58-.1,1.95,2.63,1.95,2.63,0,0,.53,2.13-.17,5.48-.84,4.1-2.96,6.73-5.24,7.52-1.83.64-2.18-.6-2.18-.6,0,0,2.71-.55,4.65-4.43M143.52,221.33c-1.18-.79-2.76-.39-2.76-.39-.8-1.19-2.67-1.62-2.67-1.62,0,0,7.43-2.91,12.05-11.27,4.74-8.61,2.52-16.6,2.52-16.6-.06-.55.73-.75.92-.26.2.5,2.51,6.1-.16,15.2-2.9,9.86-9.9,14.94-9.9,14.94M148.35,219.75s2.98,1.46,8.41,3.03c0,0,2.99,2.72,5.25,3.01l.42,1.85s-4.08.08-8.24-2.43c0,0-2.95-1.73-8.61-2.48,0,0,1.48-1.41,2.76-2.98M162.92,224.15c-4.65-.99-5.45-4.9-4.75-8.56.69-3.66,2.96-16.01,1.85-21.58-.89-4.45-2.64-5.46-2.64-5.46,2.64-2.51,6.62-2.18,8.66-1.46,2.21.78,3.24,2.31,3.33,5.77.1,3.46-.59,18.73.99,23.14,1.39,3.88,3.74,5.31,3.74,5.31-2.48,2.97-6.53,3.82-11.18,2.84M179.71,230.76s-5.2-.31-6.97-5.49c0,0,2.03-1.13,3.16-2.26,1.36.91,6.53,1.84,6.53,1.84,0,0-3.19,1.12-2.72,5.91M171.12,225.95l.76,1.62c-4.18,1.57-7.28.79-7.28.79l-.32-2.01c2.99.63,6.85-.4,6.85-.4M172.79,229.06l1.72,1.62c-3.55,2.92-9.07,1.51-9.07,1.51l-.52-2.42c4.75.8,7.88-.7,7.88-.7M174.7,234.57c1.19,1.88,2.68,2.45,2.68,2.45,0,0-2.26.68-3.84.23-2.35-.67-2.71-1.81-2.71-3.28l1.98-.6s1.17.07,1.89,1.2M169.13,234.13s-.41,2.24,2.08,3.82c2.49,1.58,6.03.93,7.52.44,1.35-.45,2.72-1.71,1.13-1.81-1.45-.09-2.94-1.8-3.74-2.83-.77-1.02-1.57-1.24-1.57-1.24l1.35-.9c5.07,2.63,8.12.61,10.83.5,2.71-.11,3.75,1.88,3.75,1.88,0,0-2.65.65-4.29,3.62-2.94,5.31-6.97,7.08-10.63,7.34-4.63.34-5.42-1.81-5.42-1.81,2.15-1.58-.11-2.26-.11-2.26-2.74-.84-4.19-7.03-4.19-7.03,1.36.34,3.29.28,3.29.28M188.82,237.36s.93-1.68,2.25-.92c.55.31.47,1.42,1.58,2.05,0,0-2.16,1-3.82-1.13M193.45,240.16s.46,3.21-3.17,3.84c-3.22.56-4.89-1.58-4.89-1.58,0,0,1.9-2.13,2.44-3.31,0,0,3.16,2.55,5.62,1.05M173.98,246.97c5.32.12,9.5-2.83,9.5-2.83,0,0,3.17,2.94,7.46,1.81,4.3-1.13,4.86-4.86,4.4-6.33,0,0,.48-.64-.11-1.36-.55-.67-.99-.79-1.78-2.02-.45-.73-.53-2.08-.96-2.71-3.21-4.79-7.49-2.86-10.33-2.75,0,0-.83-1.44.69-3.71,1.33-1.99,3.27-1.28,3.27-1.28,0,0,1.11.33,4.17,2.18,2.64,1.6,4.7,2.69,6.75,2.61,0,0,.46,2.37,3.05,3.5,0,0,.57,5.76-2.03,9.72-2.6,3.96-6.77,7.34-13.56,4.86-.88-.32-1.24-.72-2.03-.11-1.29.98-3.86,2.84-8.02,2.37-6.11-.68-7.5-6.39-7.5-6.39l1.17-.49s1.69,2.84,5.87,2.93M199.15,230.09s1.64-.49,1.81-.49,1.28,1.28,1.43,1.48c.31.42-.39,1.36-1.79.95-1.38-.4-1.6-1.71-1.44-1.94M194.74,203.86c4.83,2.29,6.58,5.56,6.9,6.46.21.63-.21,1.2-.82,1.23-.59.03-1.54-.05-1.54-.05,0,0-1.41-3.68-5.09-5.61-5.13-2.69-8.89-2.44-8.89-2.44.46-.98,1.59-1.45,1.59-1.45,0,0,3.07-.42,7.85,1.85M188.99,200.24l1.71-1.97s6.42-1.89,13.69,1.57c3.02,1.44,4.58,5.33,4.58,5.33l-5.76,3.93c-5.34-8.46-14.21-8.86-14.21-8.86M193.14,207.21c2.9,1.44,3.74,4.28,3.74,4.28l-2.96-.06c-.77-1.76-3.29-3.54-6.03-4.21-3.23-.79-5.27-.53-5.27-.53.34-1.09,1.9-1.51,1.9-1.51,0,0,3.54-.5,8.62,2.04M183.13,208.46c2.1-.25,4.76.65,6.18,1.25,1.77.76,2.24,1.79,2.24,1.79,0,0-1.59-.08-3.78-.33-1.88-.22-2.27-.5-3.44-.92-1.18-.42-1.5-.08-2.27.08-.43.08-1.35-.08-1.01-1.01,0,0,.21-.64,2.08-.87M211.8,212.26c-1.01.26-2.95.09-4.29,0-1.34-.07-4.04-.37-4.04-.37,0,0,.33-.31.39-.98.36-.37.88-.62,1.65-1.19,1.69-1.25,4.37-2.76,4.37-2.76,1.68,2.78,4.44,3.3,4.44,3.3l-.24,1.4c-.59,0-1.27.35-2.28.61M215.09,217.35s.27,1.4.74,2.2c-.47.2-.87.27-1.46.41l-.22-1.15s.86-.97.95-1.47M214.98,208.39c-4.93-1.55-2.82-5.67-8.57-9.59-5.74-3.92-14.38-2.54-14.38-2.54l1.89-2.34s3.02-.95,8.39.13c4.56.91,9.22,3.64,10.95,7.48,1.33,2.94,3.17,4.47,3.17,4.47l-1.45,2.39ZM206.26,193.33c-5.75-1.97-10.94-1.32-10.94-1.32l2.07-2.61c7.75-.18,12.5,1.19,16.69,4.93,3.82,3.41,3.74,5.47,5.84,8.03-1.55,1.36-2.18,2.15-2.18,2.15-3.05-1.86-1.62-7.8-11.48-11.18M203.06,187.6c-.9-.09-3.82-.13-3.82-.13,0,0,1.1-1.67,4.22-3.61,2.92-1.82,4.87-1.93,4.87-1.93-3.47,2.27-5.27,5.68-5.27,5.68M209.06,182.92c.66-.55,1.82-1.64,2.92-1.54,1.55.13,1.19,1,.99,1.45-.17.46-5.01,5.75-5.01,5.75l-3.1-.73s1.91-3.02,4.19-4.93M226.57,175.99c1.37,1.46,1.46,5.65-1.64,9.22-3.1,3.55-8.94,7.93-8.94,7.93l-2.01-1.64c3.1-3.92,8.15-7.28,8.58-10.95.63-5.47-5.76-7.11-5.76-7.11,3.29-2.19,8.4,1.09,9.76,2.55M220.82,179.19c-.07,2.55-2.18,4.56-4.74,7.3-1.14,1.23-3.55,3.74-3.55,3.74l-2.64-1s5.38-5.66,5.83-7.84c.45-2.19-1-2.11-1-2.11,0,0,.18.73-.36.83-.55.09-1.45-.18-2.37-.37-.9-.18-2.09.09-2.09.09l-1.31.03s.79-1.28,1.8-2.07c0,0,1.48-.33,3.53.02.68.12.79-1.47-1.57-1.68,0,0,1.19-1.04,2.28-1.5,1.09-.46,6.29,1.64,6.19,4.56M207.83,172.95c1.25-.45,3.93-1.13,6.84-.74,0,0-5.33,2.28-7.98,8.02,0,0-2.97.99-4.47,2.15.18-1.33,1.57-8,5.61-9.44M205.02,173.22c-4.38,4.01-4.81,10.62-4.81,10.62-2,1.55-4.1,4.29-4.1,4.29.75-8.66,3.82-13.18,3.82-13.18,1.09-.64,5.09-1.73,5.09-1.73M191.47,179.66c.25-1.39.84-2.01,1.51-2.44,1.09-.67,4.93-2,4.93-2,0,0-.98,1.67-2.08,4.86-1.36,3.97-1.68,9.71-1.68,9.71-.25,1.01-7.67,10.04-7.67,10.04-2.69,1.01-3.35,3.42-3.35,3.42-2.19.84-2.57,3.03-2.57,3.03-1.68.59-2.24,2.63-2.24,2.63-4.87,1.79-5.93,5.96-5.93,5.96-1.43-2.19-1.01-12.39-1.01-12.39,0,0,2.06-.38,4.56-1.77,3.02-1.68,4.02-4.92,4.02-4.92,0,0,3.1-.17,5.37-2.61,2.44-2.61,2.52-6.39,2.52-6.39,1.68-.92,3.03-3.78,3.61-7.14M185.59,179.5l4.03-1.01s-.04,1.78-.76,3.61c-1.17,3.03-2.77,3.53-2.77,3.53,0,0-.17,3.36-2.02,5.8-1.84,2.43-5.27,2.7-5.27,2.7-1.67,5.13-7.5,6.25-7.5,6.25l.05-4.94s6.08-1.92,9.53-6.28c4.63-5.88,4.7-9.66,4.7-9.66M183.58,179.25c0,1.42-.64,4.99-4.46,8.98-3.69,3.86-7.81,4.98-7.81,4.98,0-.95-.04-2.12-.35-3.85,0,0,3.09-.92,6.39-4.83,3.28-3.86,4.37-8.06,4.37-8.06,0,0,1.85,1.33,1.85,2.78M191.36,156.13c-2.31-.39-2.42-3-1.55-5.22.61-1.59,1.4-3.14,2.61-4.92,1.15.53,2.45.56,2.45.56,0,0-.68.52-1.91,3.13-1.62,3.43-1.59,6.45-1.59,6.45M195.59,142.9c.99.38,2.23.23,3.93.3,1.69.08,3.23,1.53,2.99,3.23-.3,2.16-1.91,2.24-1.91,2.24,0,0,.15-1.93-.77-2.92-.93-1-2.24-1-3.31-1s-3.39.15-3.77-1.38c-.51-2.03,1.2-4.19,2.3-4.25,0,0-1.23,3.11.54,3.79M195.4,158.63c-3.16-.15-2.17-4.48-1.33-7.1.85-2.61,2.67-4.63,2.67-4.63,0,0,.96-.58,1.69.23.68.77.23,1.85.23,1.85,0,0-1.09.86-2.04,3.38-1.2,3.14-1.22,6.27-1.22,6.27M221.89,153.97c-2.06,4.89-7.39,11.52-10.99,11.39-6.39-.23-13.4-6.31-13.4-6.31-.22-5.46,2.29-8.55,2.29-8.55,1.89.42,3.25-.68,3.72-1.68,1.07-2.32.46-4.15.46-4.15.46-.85,2-1.68,2-1.68l.91.74c-1.08,1.39-2,5.67-1.92,7.05.08,1.39,1.46,1.42,1.46.65s.83-4.35,2.75-7.73c1.93-3.39,5.06-6.17,5.06-6.17,0,0,1.03,2.29,3.89,4.44,3.41,2.56,6.08,2.92,6.08,2.92,0,0-.46,4.69-2.31,9.08M214.74,123.29c.69.31.63,1.46.63,1.46,0,0-2.25.08-3.01-.31-.77-.38-1-1.85-1-1.85,1.07.15,2.69.39,3.39.69M209.81,120.36c-.62-.62.19-1.86.19-1.86,1.28-.13,2.18.98,2.99,1.71.61.56.36,1.15.36,1.15,0,0-2.92-.38-3.54-1M212.66,129.13c-2.54,1-6.08.39-6.08.39-1.31-.54-.85-1.92-.85-1.92,2.39,1,6.16.39,6.16.39.15.54.76,1.15.76,1.15M213.2,130.6h.48c0,.76.47,1.16.34,1.24-2.15,1.46-6.29,1.35-7.75.97-.98-.26-.45-1.88-.45-1.88,4.46.92,7.38-.33,7.38-.33M214.65,133.38l.24.3c-.77.69-1.23,2-1.23,2-2.72,1.7-5.91,6.38-5.91,6.38l-.46-.46c.23-2.77-2.39-3.7-2.39-3.7-.27-1.44.75-3.38.75-3.38,5.62,1.08,9.01-1.14,9.01-1.14M225.56,143.07c-1.42.51-3.76-.32-5.91-2.01-2.16-1.69-4.06-3.93-3.83-5.16.26-1.38,1.07-2,1.07-2,0,0,.37,2.33,3.62,4.92,3.07,2.46,5.84,2.35,5.84,2.35,0,0,.06,1.58-.78,1.9M247.2,124.67c.54-.77.39-1.54,1-1.69.62-.15,1.06.59.9,1.06-.14.45-.17.88-.7,1.74-.19.34-1.06.97-1.06.97l-1.23-.62s.54-.69,1.08-1.46M238.12,115.52c.61,0,3.85.46,4.15.46s.37.71-.08.86c-.46.15-1.23.18-2.28.18-.93,0-1.04,0-1.57-.21-.36-.14-1.26-.95-1.37-1.06,0,0,.54-.23,1.15-.23M227.81,119.52c-.07-1.23-.14-1.77.39-2.3.42-.43,1.24-.31,2.15,0,.76.25,2.16.46,3,.46s2.76-.02,3.22.13c.46.16.71.56.77,1.33.09.77,1.85,2.38,2.63,2.62.78.23,2.18.19,1.8-.2-.34-.33-1.45-1.12-1.76-1.5-.3-.39-1.04-1.49-.58-1.42.46.08,2.54.12,2.99.04.46-.08.48-.46,1.08-.62.61-.15,1.61-.23,2.15-.15.54.08.38,1,.38,1.85s-.03,2.37-.77,4.08c-.69,1.61-2,3.45-4.98,4-2.31.41-7.4-.08-8.85-.54-1.46-.46-2.61-.38-3.08-.77-.46-.39-1.04-1.16-.98-2.32.05-.9.58-1.63.74-2.32.14-.69-.23-1.19-.31-2.36M241.97,129.75l-.62.85-1.3.15-.97-.71,2.89-.29ZM221.23,129.58c.27-1.71,3.43-3.67,4.58-3.98,0,0,.16,1.31.93,2.08,0,0-1.09,1.22-1.16,1.61-.08.39.61,1.16,1.69.69,1.07-.46,2.34-1.26,4.54-.93,3.66.56,6.71,2.48,7.44,3.36,1.46-.46,3.01-.21,3.01-.21,0,0,.54-.62.93-1,0,0,.39-3.38,2.39-3.3,0,0,.53.23.23.85-.31.61-.62,2.32-.62,2.92,0,.92-1.84,2.31-2.61,2.77-1,.6-2.23.53-4.22.08-1.52-.35-4.02-.49-6.1-.03-2.08.46-3.52,1.34-4.05,1.41-.53.08-2.23.39-3.61-.54-1.39-.92-3.74-3.32-3.36-5.78M219.27,131.36c.28.67.99,2.86,3.31,4.69,2.54,2,4.67,1.6,4.67,1.6,0,0,.08,1.63-1.14,1.63s-3.31-.62-5.08-2.08c-1.63-1.36-3.08-3.93-2.99-4.39,0,0,.38-1.2,1.22-1.46M217.89,130.23c-1.09.72-1.65,1.88-1.65,1.88-.69-.38-1.09-2.31-1.09-2.31,0,0,1.52-.31,2.62-.07.32.07.48.25.12.49M216.97,127.05c.38.69.61,1.23.61,1.23,0,0-2.69.07-3.38-.31-.69-.39-.76-1.62-.76-1.62.85.08,3.15,0,3.54.69M211.82,103.06c.85.77,1.46,1.61,2.54,4.61,1.08,3,2.66,7.88,2.58,10.13-.08,2.46-1.4,4.04-1.4,4.04,0,0-.16-1.02-.4-1.48-.19-.34-1.67-2.22-2.66-2.83-1.01-.62-2.66-1.17-2.66-1.17l-1.68.23s.15.85.3,1.08c.16.23-.52,2-1.45,2.08s-1.33-2.07-1.52-2.75c-.29-1.05-.26-1.64.13-1.94.39-.31,1.68-1.23,1.84-1.77.16-.54-1.38-.62-1.38-.62,0,0-.92.77-1.77,1.08-.84.3-1.14-.75-1.05-1.27.12-.64.22-1.77.68-2.08.46-.3,2.6-1.11,2.91-1.42.3-.31.15-1-.39-1.08-.53-.07-2.46.49-2.84.34-.4-.15.13-1.11.43-1.81.35-.8,1.18-1.06,1.41-1.06s1.31-.23,1.69-.47c.39-.23.2-1.25.2-1.25l-.91-.11c-.99.07-2.66.59-2.66.59,0,0,0-1.61.84-2,.84-.38,1.99-.38,2.91-.07.92.3,3.46.23,4.31,1M201.9,99.44c-.71-.35-1-1.54-.84-2.54.77.46,2.3.69,2.3.69-.14.93.33,2.4.33,2.4,0,0-.86-.09-1.78-.56M203.16,101.4s-.38.48-.46,1.04c-.21-.3-.94-.81-.94-.81l.28-.67,1.11.45ZM209.54,98.59c-.06-.42.12-.26.19-.2.07.06.21,1.81,0,2.07-.23.26-.23-.03-.23-.03,0,0,.19-.81.05-1.84M209.28,96.75c.62-1.15.38-3.77.38-3.77l1.04.64s.04.36-.11,1.75c-.15,1.38-1.31,1.38-1.31,1.38M209.81,87.06l-1.9-1.17s-.18-.25-.24-1.05c-.06-1.31.2-1.87.2-1.87l.39-.39,2.07,1.24s.26.45.18,1.69c-.08,1.31-.7,1.54-.7,1.54M209.19,88.14c.23.23.47,1.08.16,2.23-.25.97-.62,1.39-.62,1.39l-2.09-1.58.16-1.41s.17-1.32.79-1.47c.27-.07,1.38.61,1.61.84M208.35,93.83c.24,1.08-.07,2.77-.53,2.62-.23-.08-1.85-.86-2.34-1.71-.3-.54-.11-1.15,0-1.72.16-.7.58-1.55,1.01-1.12.47.46,1.64.85,1.86,1.93M205.82,97.06s1.96.89,2.07,1.1c.25.48.22,2.1-.05,2.2-.49.17-1.56.2-2.23-.1-.59-.27-.84-1.41-.89-2.03-.13-1.55,1.09-1.17,1.09-1.17M212.2,83.6s.54-.07.84,1.46c.1.48-.23,1.7-.23,1.7l-.91-.69c.15-.38-.15-2.08-.15-2.08l.46-.39ZM211.44,87.9l.84.46s-.04,1.28-.15,1.92c-.16.85-.88,1.61-.88,1.61l-.91-.5s.48-2.03.55-2.8l.54-.69ZM210.53,79.15s.07.1.28.95c.2.86-.13,2.02-.13,2.02,0,0-1.79-.67-2.18-1.13-.39-.46-.25-2.43-.25-2.43l2.28.59ZM208.04,73.95c.46.04.68.16,1.1.7.44.54,1,2.83,1,2.83,0,0-1.37-.35-1.93-.5-.33-.09-.45-.88-.86-1.72-.27-.54-.33-.74-.33-.74,0,0,.2-.61,1.01-.56M204.78,80.26c.39-1.08,2.07-1.43,2.05-.97-.08,1.07.3,2.15.3,2.15-.84.62-.73,2-.73,2,0,0-1.02.36-1.16.2-.59-.58-.84-2.32-.46-3.39M205.23,85.27l1.01-.2.19,1.15c-1.16,1.38-1.05,3.96-1.05,3.96-.56.2-.95,1.72-.95,1.72.15-1-.45-3.22-.45-3.22.69-.62,1.26-3.41,1.26-3.41M201.67,82.29c.62-.85,1.31-.69,1.31-.69,0,1.23.78,2.38.78,3.3s-.85,2.39-.85,2.39l-1.92-2.47s.08-1.68.69-2.53M200.2,86.6s1.85,1.85,2.23,2.69c.39.84.39,2.53.39,2.53,0,0-2.16-.54-2.54-1.23-.39-.7-1.54-2.93-.08-4M200.13,92.14l3.18,1.48c0,.85.46,1.88.46,1.88,0,0-.25.26-.87.26-.84,0-1.31-.31-2.07-1.08-.77-.77-.69-2.54-.69-2.54M201.43,111.67s-.15-.92-.44-2.1c-.39-1.54-.5-2.13-.87-3.59-.38-1.42-1.06-2.3-1.06-2.3,0,0,.62-1.58,1.84-.58.95.77,1.77,2.27,1.77,2.27,0,0-1.06,2.12-.89,3.5.17,1.49-.34,2.8-.34,2.8M203.43,120.35c-.53-1.62-1.61-6.06-1.61-6.06.93,1.69,1.93,2.23,1.93,2.23.92,4.08,1.92,4.77,2.91,4.92,1.01.16,1.85,0,1.85,0l1.23.69c-.08,2.08,1.85,3.62,1.85,3.62l-.17.39c-1.39.38-4.92.09-5.61-.52-.69-.62-1.82-3.64-2.37-5.26M203.43,139.52c.85-.23,2.23.77,1.77,1.85l-1.92,1.54s-1-.85-2.39-1.01c0,0,1.69-2.15,2.54-2.38M201.43,136.45c1.38.39,1.07,1.49,1.07,1.49-1.99,1.2-3.53,3.27-3.53,3.27-3.46,1.38-2.46-1.45-2.46-1.45,1.15-1.53,2.92-2.78,2.92-2.78,0,0,.99-.8,1.99-.52M198.46,135.43s-1.82,1.47-2.32,2.16c0,0-1.57-.27-2.81.72-1.63,1.33-3.09,3.57-2.17,6.25-1.79,2.11-2.91,5.02-3.34,7.34l-.63-.16s.53-3.66.65-7.47c.03-.75.06-1.21.18-2.11.28-2.14-1.07-1.01-1.5.4-.25.87-.29,2.37-.69,6.09-.42,3.82-1.74,11.34-12.37,10-.81-.1-1.2-.35-1.2-.35,0,0,4.27-9.21,5.18-24.07,0,0,2.18.24,2.87.14.69-.1,1.55-.73,1.78-1.28.3-.69.7-1.48.5-2.77-.13-.88-.2-2.08-.29-2.77-.1-.7.89-1.09,1.68-1.69.8-.59,2.28-1.28,4.06-.2,1.78,1.09,9.03,7.92,10.41,9.76M139.29,78.6c7.13-11.26,18.4-26.98,18.4-26.98,0,0,.32-.45.71,0,0,0,11.66,15.94,19.56,26.98,12.62,17.64,21.12,34.61,14.56,48.22,0,0-3.48-3.15-5.54-3.7,0,0,.36-1.16.75-1.92.41-.76.92-.7,1.99-.96,1.07-.25,2.27.65,2.51-1.6.16-1.47-.42-4.86-.71-8.03-.27-2.87-3.75-5.01-5.45-5.38-.96-.21-3.37-.29-3.37-.29l2.35-6.96s-3.48-4.53-8.44-6.68c0,0,1.09-1.24.52-2.78-.3-.81-4.96-9.95-13.58-14.08,0,0,1.13-2.06.56-2.9-.56-.85-4.43-6.67-4.95-7.43,0,0-.26-.61-1.07-.61h-.13c-.77,0-1,.61-1,.61-.5.76-4.13,6.58-4.66,7.43-.53.84.53,2.9.53,2.9-8.1,4.13-12.49,13.27-12.78,14.08-.53,1.53.49,2.78.49,2.78-4.67,2.14-7.94,6.68-7.94,6.68l2.52,7.69s-3.15-.25-5.29.26c-2.15.5-3.41,3.39-3.53,5.92-.13,2.52-.38,5.29-.25,6.67.12,1.39,1.27,1.64,2.27,1.9,1,.25,1.38-.13,1.77.63.38.76,1.78,1.89,1.78,1.89-2.04.39-6.88,1.54-6.88,1.54-4.53-11.85,2.58-27.37,14.3-45.89M114.01,132.42c1.06.4,2.31,1.29,3.57,2.88-.21.56.22,1.7-.26,1.99-.47.29-1.02.34-1.02.34-1.36-1.71-4.9-4.04-4.9-4.04-.16-1.01,1.76-1.49,2.62-1.18M119.12,137.48c-.13-.67-.17-1.09.11-1.7,0,0,.4.73,1.08,1.24.64.47.93,1.57.77,2.21-.22.85-.99,1.8-2.83,1.87-1.2.06-3.37.2-4.19.82-.86.66-.71,2.26-.71,2.26,0,0,.56,1.67.64,2.7,0,0-1.3.26-2.18-1.02-.88-1.28-1.16-3.65-.05-5.01,1.12-1.35,3.61-1.45,5.54-1.56,2.02-.11,1.92-1.21,1.81-1.81M110.07,134.66c1.4,1,4.29,3.16,3.9,3.26-.99.27-2.21.83-2.21.83-.72-.71-4.22-2.79-4.22-2.79-.03-1.25,1.97-1.71,2.54-1.31M110.53,126.36c-.93,0-2.27-2.57-2.27-2.57.34-.54,1.13-1.65,2.2-1.04,1.26.72,1.52,1.74,1.52,1.74,0,0-.54,1.88-1.45,1.88M114.01,105.8s.41-.96.94-.78c.33.11.72.72.89,1.61.11.61.03,1.62-.62,1.62-.5,0-1.27-.84-1.27-.84l.06-1.61ZM114.68,88.73c.89-.61,1.89-2.51,2.23-3.56.33-1.06.15-3.75.15-3.75,1.64,1.49,1.91,5.08,1.58,7.13-.33,2.06-1.34,1.5-2.11,1.72-.78.23-1.23,1.17-1.34,1.9-.11.72.44,1.61.34,2.17-.12.55-.73.94-.73.94l-.72-.83c.27-1.55-.44-3.29-.44-3.29.89-.59,1.05-2.43,1.05-2.43M111.1,75.91c.52.66.58,1.97.58,1.97-.66-.06-1.15,0-1.15,0,.12-1.62.57-1.97.57-1.97M108.84,87.06c.11-1.06,1.52-7.07,1.52-7.07.16-.66,1.19-.64,1.35-.08.17.55,1.25,6.32,1.3,7.27.06.95-.21,2.24-.83,2.57-.26.14-2.11.22-2.62-.05-.5-.28-.84-1.58-.72-2.64M112.59,94.31l-3.17-.02s-.26-.68-.26-1.19c0-1.36.51-1.4.51-1.4l2.7.02s.32.5.37.95c.1.95-.15,1.63-.15,1.63M110.9,95.9c1.73,0,2.61.33,2.56,1.45-.07,1.34-.85,1.91-2.63,1.86-1.79-.05-2.66-.41-2.66-1.8,0-1.28,1-1.51,2.72-1.51M112.37,103.47v2.77s-2.94-1.7-3.28-1.92c0,0-.04-3.3.05-3.29.82.12,2.42.13,3.17-.04l.06,2.49ZM103.62,89.36c-.56-1.17-.87-4.18.34-6.96.55-1.23,1.19-1.82,1.36-1.6,0,0-.44,3.71.4,5.26.83,1.56,1.73,2,1.73,2,0,0-.03,2.47.86,3.19,0,0-.32.63-.43,1.57-.09.72.18,1.6.18,1.6,0,0-.97.55-1.23,1.49,0,0-.89-1.34-.78-2.28.11-.94.41-1.64.24-2.24-.45-1.61-2.12-.85-2.68-2.02M104.94,101.09c.38-.89,1.56-2.68,1.56-2.68.17.93.57,1.51.95,1.96l-.1,3.17s-.65.02-1.09.02-1.11.32-1.54.11c-.23-.11-.12-1.8.22-2.59M101,111.91c2-3.45,3.57-5.64,4.56-6,1.5-.56,3.12.44,4.56,1.33,2.33,1.45,3.95,2.67,4.12,3.45.16.78-.06,1.84-.61,1.4-.56-.45-2.23-1.62-2.79-1.62s-.77.89,0,1.56c.78.67,3.01,2.39,3.34,2.84.33.44.34,2.79-.16,2.44-.34-.22-1.01-.55-1.78-.94-.49-.25-1.67-.06-.89.88.78.95,2.5,2.34,2.72,2.73.23.39.23,2.11-.27,2.39-.5.28-.73.33-1.01-.11-.28-.44-1.24-1.46-2.01-1.8-.78-.33-1.56-.31-2.28.3-.9.76-1.89,1.64-2.04,2.37-.22,1.05-.65,1.77-1.91,1.97-.9.15-8.21-.29-8.1-3.45,0,0,2.56-6.29,4.56-9.73M95.44,124.26c.57.22,1.71,1.68,4.54,2.18,3.12.55,4.3.21,4.3.21,0,0,1.05,0,.39,1.17,0,0-1.08,1.02-4.69.58-2.59-.32-4.31-1.45-4.98-2.46-.67-1-.11-1.9.44-1.68M94.6,127.87s1.89,1.7,5.07,2.1c3.15.39,4.97-.38,4.97-.38,0,0,1.09,0,.42,1.17,0,0-1.04,1.54-5.28,1.17-2.59-.23-4.92-1.47-5.59-2.46-.67-1-.08-1.99.42-1.6M93.8,131.86s3.36,2.01,6.69,1.9c3.34-.11,4.45-.83,4.45-.83,0,0,.36,2.2.74,3.07,0,0-4.19,3.14-7.81,6.87-3.61,3.72-4.45,5.46-4.45,5.46,0,0-1.74-7.46.38-16.47M89.81,173.13c1.9-.94,4.25-1,4.25-1l-1.15,1.82c-2.61.32-4.64,1.93-4.64,1.93-.17-1,.19-2.1,1.54-2.75M88.31,178.88c-.18-.96.26-1.34.26-1.34,0,0,1.91-1.42,3.5-1.59,0,0-.67,1.34-1,2.34,0,0-1.08.59-2,1.25,0,0-.6.16-.75-.66M116.59,175.04c.08.83-1.25,1.33-1.25,1.33.41-.5.25-2.49.25-2.49,0,0,.91.33,1,1.16M114.53,165.51c.39-1.22.28-1.83.62-1.83s.89.68.92,2.66c.05,3.06-1.01,4.65-1.01,4.65,0,0-.11.05-.51.13,0,0-.97-1.36-2.13-2.53,0,0,1.65-1.61,2.12-3.08M110.58,168.95c1,.92,2.84,3.42,3.25,4.26.42.83,0,2.67-.5,2.75-.5.09-1.17-.16-1.17-.16,0,0-.33-1.5-.67-2.17-.33-.66-.92-1.41-.92-1.41,0,0-1.08.16-.75,1,.33.83.91,2.5.84,3.34-.09.83-.92,2.16-.92,2.5s-1.34.84-1.75.42c-.42-.42-.33-1.67-.25-2.59.09-.92-.66-1.67-.92-2.16-.25-.5-1.42-.16-1.17.76.25.91.5,1.83.5,2.42s-.33,2.17-1,2.33c-.67.17-1.58.09-1.67-.5-.09-.59-.17-1.8-.17-1.8,0,0-.5-.85-.91-.85s-.46.07-.63.57c-.16.5.51,2.16.05,2.67-.26.27-1.15.79-1.48.29-.33-.5-.78-1.38-1.2-1.88-.42-.5-1.41-.5-1.83,0-.42.5.06,1.29.59,1.67.58.42.81,2.37,2.1,2.37.76,0,2.73-.38,3.32-.71.58-.33,1.83.17,2.42-.25.58-.41,1.42-.5,1.42-.5,0,0,2.38-.02,3-.5,1.58-1.25,1.42-2.26,1.75-2.75,0,0,1.67,0,2-.25.33-.25-.58,1.34-1.08,1.75-.5.42-1.41,1.75-3.91,2.67-2.5.92-5.92,1.96-7.87,2.52-1.66.47-4.67,1.26-6.49.82-3.09-.75-4.48-4.22-4.48-4.22l.64-.7s1,.08,1.42-.5c.42-.59,2.42-5.67,3.67-7.17,1.26-1.51,7.18-3.93,9.76-4.34,2.59-.42,4.01-.59,5.01.33M114.55,152.79c-2.67,2.21-5.42,2.81-5.42,2.81-.21-1.26-1.28-2.24-1.84-2.24s.26.72-.06,3.82c-.48,4.63-3.73,9.97-3.73,9.97-3.34,1.01-8.38,3.18-8.38,3.18-3.65-.03-4.93.79-4.93.79-.32-3.03,1.21-16.15,4.67-21.44,4.46-6.82,12.34-11.87,12.34-11.87,1.12.4,3.09,2.13,3.09,2.13,0,0-1.71,2.66-.21,5.96,1.53,3.41,4.41,2.87,4.41,2.87.28,1.27.47,3.68.06,4.02M118.43,151.81s-.05.58-.85.82c-.83.25-1.34.03-1.34.03,0,0,.16-1.44-.27-4.21-.4-2.61-.98-4.35-.98-4.35-.26-1.49,1.88-1.42,1.97-1.23,1.81,3.51,1.46,8.94,1.46,8.94M121.3,150.96c-.71.4-1.17.16-1.17.16,0,0,.1-2.77-.26-4.7-.53-2.88-.97-3.91-.97-3.91,0,0,.15-.07.85-.24.39-.09.8-.32.98-.09,1.34,1.75,1.36,7.07,1.36,7.07,0,0-.08,1.31-.8,1.7M123.4,143.94c-.34-1.69-.98-3.18-.98-3.18,0,0,.86-.81.33-2.66-.49-1.7-2.08-2.35-2.56-3.54-.6-1.48-1.14-1.3-1.62-.75,0,0-1.26-1.3-2.68-2.25,0,0,5.97-4.01,10.58-5.32,3.82-1.09,7.78-1.42,7.78-1.42,0,0,.64,1.17,1.66,2.51.57.74,1.48,1.54,1.48,1.54,0,0-.63,1-.79,2.39-.11.89,1.08,2.07,1.32,3.1.24,1.04.8,2.08,2.72,1.84,1.91-.24,4.78-2.23,5.18-2.95.4-.71.8-.09.8-.09,0,0,1.14,1.95,2.5,2.43,0,0-.28,1.37.22,2.21,0,0-.22,2.58.37,3.16.59.59,2.39,1.24,3.9,1.32,0,0,.35,2.08.59,3.68.24,1.59.6,4.21.6,4.21,0,0-1.93.97-2.35,3.56-.58,3.55-.06,6.3.66,7.35,0,0-1.42.74-4.54,2.1-1.83.79-4.53,1.92-4.53,1.92,0,0-.61-.26-1.43-.95-.64-.53-.62-1.47-.62-1.47,0,0,1.28.08,2.15-.4.88-.48,1-.45,1.48-.51.67-.09,1.61-.41,2.09-.59.66-.25.76-1.47.76-1.47,0,0,1.29-.12,2.32-.33.45-.09-.1-.87-.42-1.19-.32-.32-1.67-.33-2.42-.25,0,0-.94-1.03-1.75-1.83-.71-.7-2.08-1.59-3.75-1.75-1.68-.16-3.76.17-5.51,1.42,0,0-1.07.71-1.25.65-.84-.28-3.94-.89-5.42-3.86-1.2-2.39-2.08-4.95-2.48-5.59-.4-.64-.8-.16-1.04,0-.24.16-2.08,1.42-2.8,1.88,0,0,0-2.26-.55-4.91M124.72,150.68l1.94-1.27s1.99,5.02,3.83,6.61c1.83,1.6,4.18,2.33,4.18,2.33,0,0-.75,1.6-1.05,4.06-.41,3.44.57,5.55,1.12,6.9,0,0-2.39,1.05-4.22.8,0,0,.71-1.83.63-2.79-.08-.95-.69-1.99-1.97-3.99-1.27-1.99-4.76-9.33-4.44-12.64M127.09,172.88c.91-1.08,2.33-.92,2.33-.92,2.34.42,6.35-1.08,6.35-1.08,1,1,2.3,2.86,2.3,2.86,0,0-1.55.81-3.89,1.64-2.33.83-6.25,1.58-7.34,1-1.08-.58-.67-2.42.25-3.5M126.27,178.38s1.85.3,5.18-.42c3.71-.8,7.65-2.76,7.65-2.76.67.66,1.1,2.6-.32,3.77-2.55,2.1-4.51,2.75-8.01,3.5-2.79.59-4.92-.25-4.92-.25-1.83-1.42.42-3.84.42-3.84M124.23,187.7s1.49,2.87,5.34,5.64c5.53,3.97,14.05,5.53,18.5,5.74,0,0-1.08,3.06-3.27,4.85,0,0-2.17-.5-3.85-2.18-.4-.4-1.28-.1-2.08-.1-1.7,0-3.17,0-5.34-1.38-2.07-1.31-2.18-2.47-2.77-2.77-.64-.32-1.09.09-3.17-.6-2.08-.69-3.86-2.18-5.15-4.25-.63-1.02-.99-1.09-.99-1.09,0,0-1.99-.09-3.17-.49-1.64-.54-1.88-1.08-1.88-1.08,0,0,4.15-2.77,7.81-2.28M120.57,193.53s.78,2.03,4.15,4.15c2.67,1.68,5.14,1.59,5.14,1.59,0,0,1.37,2.36,4.59,3.85,2.78,1.29,5.6.4,5.6.4,0,0,1.28,1.48,3.17,2.08,0,0-5.52,4.37-9.11,4.77,0,0-3.47-.96-8.27-5.49-4.33-4.07-10.72-9.59-17.05-10.67l5.74-3.05s2.28,1.98,6.04,2.37M101.39,190.01c3.7-.14,4.82.75,4.82.75,0,0,2.12-1.65,4.39-1.82,2.02-.15,2.65.64,2.65.64l-9.07,4.88s-2.01-1.52-4.37-1.01c-2.35.5-3.68,1.77-4.92,2.74-.39-.21-1.1-.67-1.92-1.52,0,0,3.04-4.47,8.43-4.67M89.59,193.87s1.39,1.76,2.49,2.64c.77.62,1.19.92,1.52,1.16,0,0-.77,1.12-1.69,2.04-1.78,1.77-2.67,1.3-2.67,1.3-1.74-.67-1.93-2.33-1.45-3.48.46-1.13,1.8-3.66,1.8-3.66M84.76,212.78s-.13,3.56,1.81,4.57c0,0-11.28.47-12.15-11.68-.28-3.83,1.14-6.78,2.95-8.06,1.48-1.04,3.56-.87,2.35,1.34,0,0-1.75,2.03-2.01,5.57-.33,4.7,2.55,8.13,7.05,8.26M83.98,210.71s.08-1.34.25-2.15c.14-.71.43-.88.85-.72.28.11.49.43.49.43l-.45,2.61s-.46.06-1.14-.17M86.56,213.71c-.13-1.68.42-4.02.61-4.22.2-.2,1.48-.33,1.75.87.11.53-.09,1.56-.16,2.43,0,0-.3,2.16-.3,3.19,0,.33-.4.34-.6.28l-.61-.42s-.56-.45-.69-2.13M88.14,207.56c.08-.96,1.02-3.04,1.58-3.2.56-.16,1.51.8,1.11,1.51-.39.72-.84,2.15-.84,2.15-.88,0-1.85-.46-1.85-.46M80.45,183.98s.25,1.26.69,1.82c.91,1.18,2.46,1.06,4.34,1.26,1.77.19,3.02,1.17,3.09,2.65.11,2.3-1.9,5.59-2.55,7.26-.82,2.1.01,3.96.66,4.65,1.09,1.16,1.5,1,1.93,1.27-1.24,1.1-2.05,3.48-2.05,3.48,0,0-.5.06-1.35-.22-.66-.22-1.39-.33-1.79.21-.97,1.34-1.04,3.74-1.04,3.74-2.26-.6-3.21-3.75-2.65-6.76.55-3,4.02-7.11,4.82-9.15,1.4-3.56.12-5.05-1.97-6.38-1.56-.99-2.1-.87-2.52-1.57-.56-.94.38-2.27.38-2.27M73.94,171.99c-.75.6-2.44,2.3-2.79,5.52-.26,2.42.44,4.78,1.88,6.33,1.22,1.31,2.89,2,4.85,2.01.03.49.2.93.49,1.33-3.06.96-7.96-.44-9.81-3.77-1.81-3.26-2.27-9.41,2.51-12.29,1.29-.77,2.26-1.03,2.92-1.11-.23.63-.24,1.32-.05,1.98M71.6,188.36c-.48.36-1.32.77-2.34.81-1.03.05-2.36-.29-3.27-1.77-1.01-1.64-.42-3.72.19-4.66.21.58.45,1.1.72,1.6,1.03,1.83,2.76,3.19,4.7,4.02M74.41,168.16c-1.5,0-2.85.4-4.23,1.15-4.18,2.27-5.17,6.97-4.67,10.69-1.6-1.04-1.97-2.79-2.05-3.85-.2-2.87,1.44-6.79,4.96-8.74,1.26-.69,2.33-.94,3.21-.94,1.54,0,2.52.61,2.94,1.01.21.27.09.68-.16.68M61.71,156.27c-2.54-4.2-1.21-10.67,2.73-13.32.32-.22.48-.61.4-.98-.01-.06-1.24-6.34,3.84-9.38,3.44-2.05,5.77-1.35,6.85-.76,1.37.76,2.01,1.99,2.04,2.82.02,1.52-.98,2.43-1.99,2.67-.3.07-1.33.23-1.77-.71-.12-.26-.35-.44-.62-.51-.27-.07-.57-.02-.79.16-.88.65-1.96,3.26-.49,5.37.55.79,1.74,1.67,2.88,2.36,1.71,1.03,3.64,2.21,4.6,4.36,1.48,3.28,1.19,6.43,1.14,6.82-.03.34-.05.61-.05.69,0,.39.05.41.93.75.77.31,3.45,2.02,3.86,5.88.34,3.22-.66,6.83-2.48,8.97-.67.78-1.75,1.73-3.21,1.8-2.22.13-3.41-.79-3.76-1.61-.14-.33-.16-.66-.06-.97.07.06.15.12.22.18,1.31.95,3.24,1.04,4.81.2,1.92-1.01,2.95-3.08,2.87-5.69-.15-4.33-3.47-6.93-4.93-7.87.31-1.46.53-4.76-2.36-8.17-1.64-1.95-3.91-3-6.22-2.91-2.06.09-3.88.91-5.07,2.57-.81,1.13-1.01,2.78-.47,4.03.4.94,1.13,1.56,1.95,1.67.9.12,1.63-.05,2.15-.51.07-.06.12-.12.17-.18.24.17.49.41.66.73.3.55.32,1.28.04,2.15-.34,1.1-1.42,1.88-2.81,2.05-1.55.19-3.71-.4-5.07-2.64M59.95,194.68c-2.17-4.04-1.54-7.77-.72-9.54.17-.36.09-.79-.19-1.07-.03-.03-2.63-2.61-3.06-6.25-.44-3.74.68-9.66,3.3-13.12,2.3-3.02,4.45-4.26,4.47-4.27.02-.01.04-.03.06-.04,1.12.42,2.25.52,3.21.4,2.14-.26,3.83-1.55,4.38-3.37.44-1.38.37-2.61-.2-3.64-.81-1.49-2.09-1.92-2.26-1.96-.3-.08-.88-.11-1.12.09-.24.21-.36.44-.33.76,0,0,0,.05-.04.07-.06.04-.3.25-.64.05-.09-.05-.32-.19-.47-.54-.22-.51-.19-1.25.24-2.02.66-1.18,2.06-1.84,3.53-1.9,1.73-.07,3.55.7,4.82,2.19,3.06,3.61,1.87,6.93,1.82,7.06-.17.45.02.96.45,1.18.04.02,4.41,2.32,4.56,6.64.09,2.54-1.12,3.57-1.85,3.95-.94.49-2.09.47-2.81-.06-.54-.4-.75-1.04-.6-1.86.05-.26-.01-.52-.17-.74-1.08-1.42-4.3-3.47-8.83-.97-3.78,2.08-6.22,6.41-5.93,10.52.17,2.38,1.26,4.3,3.05,5.4-.85,1.31-1.66,3.62-.5,6.31.82,1.91,2.86,3.08,4.94,3.08.09,0,.19,0,.29,0,1.71-.09,3.51-.97,4.22-2.05,2.27.55,4.6.43,6.31-.4.09-.05.31-.14.35-.12,2.1.84,3.49,1.76,3.12,3.49-.32,1.45-1.07,2.02-1.07,2.02-2.04-3.96-12.51-4.53-16,4.95-.57,0-4.47-.83-6.33-4.28M80.33,222.98c-6.85-2.23-15.36-10.98-12.76-21.75,1.88-7.79,8.06-8.49,10.48-8.06,2.22.41,3.35,2.08,1.41,2.28-1.62.17-2.89.14-4.7,2.42-2,2.51-3.3,8.19-.61,13.83,4.16,8.74,11.55,8.19,14.71,7.66,0,0,1.07,2.48,1.67,3.16,0,0-4.63,2.28-10.2.47M92.57,222.62c-4.97-6.81-.79-14.65.49-16.13.97-1.12,3.46-1.78,3.46-1.78,0,0-3.89,5.01-3.18,11.59.92,8.65,14.54,11.68,24.45,14.36,0,0-.59,2.25-1.48,2.54-.56.18-19.19-4.36-23.74-10.59M136.75,259.82s-6.14.46-11.18-3.7c-4.6-3.79-5.65-7.25-5.71-9.29-.07-1.85-1.59-1.47-1.71-.18-.11,1.09.23,3.34.23,3.34,0,0-1.4.76-3.87,1.05-2.66.32-8.92-1.48-10.45-6.97,0,0-5.13-.36-8.1-4.81-2.96-4.46-3.46-9.81-1.77-12.71,0,0,3.29,2.38,6.26,3.57,0,0-.2,3.84,2.61,7.06,2.08,2.37,4.5,2.53,4.5,2.53,0,0,2.43,5.87,8.17,5.87,6.23,0,8.12-5.75,8.12-5.75,0,0,.78.88.99,1.09.16.15,2.01-.82,2.91-1.91.88-1.09,2.03-2.93,2.03-2.93l1.58.6s.69,1.48,2.47,1.68c0,0,.4,1.49,1.38,1.58,0,0-.59,3.09.01,5.37.6,2.27,1.52,7.36,1.52,7.36,0,0-3.6.48-7.21-2.28-3.92-3-2.79-7.13-1.57-8.15,2.19-1.83,5.28.05,3.59,2.25,0,0-.1,1.59,1.38.79,1.49-.79,1.6-2.89.21-4.37-1.38-1.48-4.35-1.88-6.32-.3-2.47,1.97-3.4,6.22,0,10.03,4.08,4.58,9.99,4.26,9.99,4.26,0,0-.85,2.65-.06,4.92M144.09,259.18c-.6,1.49-2.07,1.03-2.07,1.03,0,0-.27-.66-.56-1.54-.24-.72-.1-1.64-.1-2.33-.01-1.69-1-1.68-1-1.68-.2,1.29-.89,2.09-.69,3.07.19.99.41,1.76.49,2.67.1,1.19-1.28.83-1.28.83,0,0-.26-1.96-.6-3.4-.34-1.45.49-2.95.49-2.95.3-1.19-.55-6.02-1.34-9.09-.79-3.06-.37-5.16-.37-5.16,2.47,0,5.31-1.63,7.25-6.05,2.28-5.14.89-9.89.89-9.89,0,0,5.44.6,6.83,2.28,1.38,1.68,1.58,3.46.39,6.13-2.17,4.88-3.93,9.02-4.15,11.28-.4,4.05-.6,6.33-1.48,7.62-.89,1.29-2.45,2.38-2.45,3.56s.17,2.55-.25,3.62M150.54,244.16l3.2,1.03s-.23,4.73-4.36,5.58c0,0,.18-.99.55-2.6.36-1.59.15-2.26.61-4.01M154.91,256.11c-3.86,3.62-8.47,3.21-8.47,3.21,0,0,.33-1.17.22-1.87-.22-1.52.39-3.17,2.08-4.04,2.78-.75,4.49-1.63,5.64-3.9.85-1.67,1.23-3.92,1.23-3.92l2.98.11s.17,6.78-3.67,10.41M158.54,243.48c-4.98-.3-7.41-1.67-7.41-1.67,0,0,.69-2.88,1.82-5.08,2.14-4.13,2.13-4.82,2.13-4.82.79.3,1.82.46,1.82.46,0,0-.93.57-.85,2.5.11,2.88,3.06,5.11,4.64,5.9,1.6.8,2.16.69,1.53-.44-.65-1.21-.22-3.61.07-4.78.31-1.35-.05-2.1-.05-2.1l1.56.08c1.68,6.8,4.03,8.28,4.03,8.28,0,0-3.33,2.04-9.29,1.67M215.8,246.59c-5.72,2.42-10.23,1.23-11.11.87-.88-.35-1.12.07-1.29.88-.29,1.4-1.34,5.61-7.36,8.18-5.69,2.44-10.4.94-11.33.52-.94-.41-1.68-.12-2.69.59-1.34.94-6.43,3.45-12.68.71-6.73-2.95-8.94-8.18-8.65-12.8,0,0,3.16-.22,4.21-.56,0,0,1.71,6.58,8.66,7.86,5.74,1.05,9.57-2.32,9.57-2.32,0,0,5.73,2.75,11.04-.17,5.32-2.93,7.51-8.89,7.51-8.89,0,0,7.22,3.98,13.35-.06,6.52-4.28,4.78-11.86.82-12.85-3.47-.87-5.67,1.46-5.15,3.62.53,2.16,1.23-.47,2.28.29,1.05.77.76,4.44-2.87,5.2-3.62.77-6.66-.76-8-1.75,0,0,.23-1.22.17-2.22,0,0,1.7-.18,2.11-1.52,0,0,1.45,0,2.86-1,1.1-.77,1.1-1.87,1.1-1.87,0,0,1.58,0,2.93-1.64.95-1.17.69-2.72.69-2.72,0,0,1.04-.23,1.64-.96.87-1.05.84-1.89.84-1.89,0,0,1.16-.44,2.26-.22.78.15,6.78,2.43,7.83,8.06,1.3,7.1-2.28,13.91-8.76,16.66M261.14,184.02c-1.33,4.58-4.88,7.31-8.99,7.65-.43.03-.81.21-.96.61-.16.4.04.79.32,1.09,1.8,2.01,2.24,4.19,2.24,4.19.62,3.19.2,6.55-1,9.26-1.98,4.48-5.75,4.66-6.11,5.11-.36.46-.28.46-.64,3.19-.49,3.69-5.79,8.63-12.67,9.31-5.15.5-8.78-.18-10.67-1.46-2.73-1.86-5.95-4.08-5.44-6.41-1.48-1.29-1.13-4.16-1.13-4.16,0,0,.13-3.4,2.97-6.41,3.1-3.28,8.89-6.18,8.89-6.18,0,0,1.27-.18,3.74.73,2.46.91,3.1,4.65,1.73,6.48-1.37,1.83-3.65.55-3.65.55.1-1.73-3.4-4.32-6.11.09-2.46,4.01.26,10.59,7.29,10.31,9.12-.37,10.4-7.93,10.4-7.93,0,0,2.92-.82,4.74-3.65,2.57-3.98,1-8.3.64-9.22-.37-.92-1.55-.77-1.37.64.37,2.91,1.03,7.11-2.92,9.57-.74.46-2.38,1.19-2.38,1.19,0,0-.45.18-.54.82-.36,2.52-1.83,4.47-4.38,5.74-2.55,1.28-7.47,1.56-9.48-1.19-2-2.73-.64-6.11.64-6.56,1.27-.46.64,1,.64,1-1.37,3.47,1.45,6.2,6.11,5.11,4.65-1.09,4.84-5.38,4.84-5.38,0,0,2.82-1.02,3.83-3.92.82-2.38,1.47-6.75-1.91-9.67-2.65-2.28-6.1-2.27-6.1-2.27.54-.82.72-3.11.72-3.11,1.28-.27,4.2.1,6.29,1.46,1.56,1,2.65,2.12,3.45,3.37.87,1.36,1.34,0,1.34,0,0,0,.13-1.74-3.52-4.65-2.74-2.19-7.45-2.26-7.45-2.26,0-3.32-1.45-6.34-1.65-6.73,1.18-.52,3.53-1.33,5.97-.82,1.69.35,3.63,1.71,4.35,3.79.66,1.91-.06,3.47.07,3.76.29.66.75.7,1.07.73h.34c1.24,0,5.01-.29,7.53-3.97,2.24-3.26,2.28-8.96.14-12.98-1.89-3.52-5.22-5.42-9.38-5.38-.06,0-.12,0-.19.02-.5-.5-1.1-.89-1.78-1.11-1.26-.4-2.55-.01-3.41.54-1.31.84-1.32,2.08-1.34,2.26-.07.52.3.99.81,1.06.52.06,1-.31,1.06-.82,0-.01.09-.65.64-1.01.37-.24.97-.44,1.65-.22,1.13.36,1.94,1.55,2.02,2.96.05.82-.12,2.83-2.62,3.98-1.61.73-3.76.5-5.6-.62-2.33-1.41-3.76-3.88-3.91-6.76-.23-4.53,3.27-6.56,5-6.84.3-.05.57-.24.7-.51.14-.27.13-.6-.01-.87-.1-.18-2.36-4.52,1.74-8.72,3.38-3.47,8.64-4.2,11.98-1.67,1.19.91,1.46,2.31,1.32,3.22-.13.79-.52,1.37-1.07,1.57-.75.27-1.82-.17-2.96-1.2-.31-.28-.77-.32-1.13-.11-.22.13-1.98,1-2.13,2.99-.09,1.23.17,2.69,1.64,3.84,1.25.99,2.78,1.34,4.42,1.68,2.02.41,4.12.84,6.15,2.6,3.91,3.41,4.99,7.67,3.03,12.01-.16.37-.06.81.24,1.09.16.13,3.4,4,1.89,9.23M171.14,131.77s-1.31-2.06-2.69-5.39c-.71-1.73-1.45-3.64-1.87-5.22.09,0,.18-.02.23-.05.5.4.98.59,1.42.62h0c.52.03.97-.18,1.32-.49.32-.29.58-.67.78-1.06.26-.07.83-.35,1.11-1.25,0,0,.03-.38-.26-.27-.27.11-.8.15-1.2.13-.11-.01-.23-.01-.34-.03-.11-.01-.2-.02-.29-.02-.22-.02-.42-.02-.62,0,.3-.14.6-.23.92-.25.61-.06,1.02-.29,1.29-.65.26-.35.45-1.07.45-1.25s-.25-.33-.39-.16c-.13.16-.36.34-.6.4-.23.06-.53.07-.91.09-1.04.06-1.86.78-2.14,1-.41.33-.69.96-.91,1.54-.06.15-.11.29-.15.43-.08-.49-.12-.91-.07-1.24.2-1.51,2.17-3.67,3.14-4.42.56-.43,1.35-.67,2.17-.62.94.06,1.28-.31.64-.87-.65-.57-2.7-.69-3.82.49-.87.91-1.85,1.9-2.18,2.38-.39.58-.62,1.22-.79,1.55-.17.32-.58.15-.86-.48-.38-.87-.9-1.03-1.04-.19-.13.84,1.36,2.66.48,4.47-.31.64-.11.54-.75,1.26-.6.67-.26,2.56.3,1.78.36-.53.64-.63.96-1.08.78-1.14.97.04.97.04,0,0,.85,1.84,1.81,4.35.97,2.49,1.87,3.92,2.56,5.47.5,1.49.49,2.59.49,2.59l-2.75,1.17c-.16-2.08-1.01-4.42-1.08-3.75-.18,1.49-.75,11.76-.75,11.76-.67-.08-1.34-.08-1.76,2-.42,2.09,1.25,4.34,1.25,4.34,0,0-.5,4.58-1.33,7.09-.83,2.5-2.75,3.66-3.84,3.75-1.08.08-4.18-.23-5.3-1.15-.91-.75-.96-5.36-.62-6.95.33-1.58,1.03-1.5,1.03-1.5,0,0,.55,5.26.47,6.09-.08.84.42.92.83.5.42-.42.38-4.5.13-7.58-.25-3.09-1.22-9.52-1.72-11.6-.51-2.13-.61-3.91-.95-5.33-.23-.96-.29-.42-.29-.42l-.38,3.3s-.83-.19-1.6-.41c-.64-.2-.68-.47-.68-.97h-.04c0-.5,1.26-4.89,1.94-7.47.67-2.59.88-5.19.88-5.19,0,0-.11-.88.63-.31.42.32.61,1.07,1.05,1.61.62.73.98-.59.72-1.16-.4-.87-.8-1.68-1.13-2.31-.92-1.79.54-3.62.38-4.46-.15-.83-.69-.66-1.04.22-.26.65-.72.88-.9.55-.18-.32-.63-.8-.94-1.41-.27-.51-1.39-1.63-2.46-2.27-1.25-.73-2.41-.72-3.39-.56-.67.11.15,1.06,1,1.18.88.12,1.73.54,2,.8.96.92,2.6,2.1,2.84,3.6.06.43.09,1.12.08,1.92-.08-.23-.19-.53-.32-.83-.25-.58-.57-1.18-.99-1.5-.3-.2-1.14-.88-2.19-.88-.38,0-.68.02-.91-.03-.24-.05-.54-.2-.62-.38-.09-.18-.34-.07-.38.18-.03.25.23.89.52,1.23.28.34.72.54,1.32.57.32.02.63.08.93.2-.19,0-.39.01-.61.04-.09.01-.18.03-.27.04-.13.03-.24.04-.35.05-.39.05-.86.03-1.2-.06-.34-.09-.24.28-.24.28.33.88.91,1.13,1.17,1.19.22.38.5.74.84,1.01.36.29.82.48,1.34.42h0c.43-.05.89-.26,1.37-.69.09.03.21.05.35.03.07-.01.14-.03.22-.05-.08,1.88-.34,4.22-.82,6.07-.76,3-1.99,6.43-1.99,6.43,0,0-1.17-.6-1.92-1.68-.54-.78-1.19-2.17-1.52-4.5-.33-2.34-1.47-4.28-2.5-6.06-.67-1.15-1.11-4.15-1.02-5.73.08-1.59-.31-3.45-.72-3.99-1.14-1.51-1.67-7.2-.42-9.79,1.26-2.58,6.54-4.77,9.71-4.77s6.85,1.55,6.85,1.55c0,0,3.6-1.08,7.09-1.42,3.51-.33,7.54,1.87,9.46,3.52,2.34,2,2.4,5.42,2.16,6.75-.25,1.34-1.42,2.75-1.34,3.34.08.58.42,4.92.26,7.67-.17,2.75-1.27,4.43-2.11,5.85-.84,1.42-.57,4.49-.49,5.41.08.91-.68,1.74-1.18,2.08-.51.34-.54.45-.87-.23h-.02Z"/></g></svg>